<svg width="24" height="24" viewBox="0 0 24 24" fill="none" xmlns="http://www.w3.org/2000/svg">
<path d="M17.31 8.1V5.29C15.22 4.99 13.2 4.65 11.53 6.29C9.85999 7.93 10.38 9.95 10.21 11.98L7.47 12.18V15.49L10.19 15.65V23.39C5.13 23.12 0.56997 17.75 0.59997 12.17C0.610499 9.20993 1.75325 6.36605 3.79379 4.22167C5.83433 2.07729 8.61799 0.794935 11.5739 0.63761C14.5298 0.480285 17.4339 1.45992 19.6905 3.37559C21.9472 5.29126 23.3853 7.99777 23.71 10.94C24.0358 13.8496 23.2316 16.7731 21.4637 19.1068C19.6957 21.4404 17.0991 23.006 14.21 23.48V15.64L16.77 15.5L17.24 12.17L14.24 12.04C13.65 9.03 13.93 8.65 17.31 8.1Z" fill="#0E4E8C"/>
</svg>
