<svg width="25" height="24" viewBox="0 0 25 24" fill="none" xmlns="http://www.w3.org/2000/svg">
<path d="M12.42 0.669992C13.9456 0.652641 15.4594 0.939838 16.8726 1.51476C18.2859 2.08969 19.5702 2.9408 20.6504 4.01824C21.7307 5.09569 22.5851 6.37782 23.1637 7.78958C23.7423 9.20133 24.0334 10.7143 24.02 12.24C24.0067 15.3086 22.775 18.2462 20.5958 20.4066C18.4167 22.567 15.4685 23.7732 12.4 23.76C9.33142 23.7467 6.3938 22.515 4.23338 20.3359C2.07297 18.1567 0.86673 15.2085 0.879991 12.14C0.881287 10.6282 1.18115 9.13154 1.76241 7.73596C2.34367 6.34037 3.19486 5.07334 4.26711 4.00759C5.33935 2.94185 6.61157 2.09839 8.01067 1.52563C9.40976 0.952869 10.9082 0.66209 12.42 0.669992ZM12.42 19.5C13.52 19.5 14.62 19.5 15.71 19.5C16.2219 19.5106 16.7308 19.4193 17.2071 19.2313C17.6834 19.0433 18.1175 18.7625 18.4841 18.4051C18.8508 18.0477 19.1427 17.621 19.3429 17.1497C19.543 16.6784 19.6474 16.172 19.65 15.66C19.77 13.36 19.77 11.05 19.65 8.74999C19.6714 8.27651 19.5986 7.80347 19.4358 7.35835C19.273 6.91322 19.0234 6.50486 18.7016 6.15695C18.3797 5.80903 17.9919 5.52849 17.5608 5.3316C17.1296 5.13471 16.6637 5.02539 16.19 5.00999C13.6775 4.80499 11.1525 4.80499 8.63997 5.00999C8.16625 5.02539 7.70032 5.13471 7.26918 5.3316C6.83804 5.52849 6.45027 5.80903 6.1284 6.15695C5.80653 6.50486 5.55696 6.91322 5.39415 7.35835C5.23134 7.80347 5.15855 8.27651 5.17998 8.74999C5.05998 11.0518 5.05998 13.3582 5.17998 15.66C5.18608 16.1856 5.2981 16.7046 5.50936 17.186C5.72061 17.6673 6.02676 18.1011 6.4095 18.4615C6.79224 18.8218 7.24372 19.1013 7.73692 19.2831C8.23013 19.465 8.75494 19.5456 9.27998 19.52C10.36 19.54 11.4 19.5 12.45 19.5H12.42Z" fill="#0E4E8C"/>
<path d="M12.46 6.32C13.46 6.32 14.54 6.32 15.58 6.32C17.19 6.41 18.13 7.09 18.24 8.67C18.3734 11.0014 18.3734 13.3386 18.24 15.67C18.2446 15.9766 18.186 16.2809 18.0677 16.5639C17.9494 16.8468 17.7741 17.1023 17.5526 17.3144C17.3311 17.5265 17.0682 17.6907 16.7804 17.7966C16.4927 17.9025 16.1861 17.9479 15.88 17.93C13.58 17.99 11.28 17.98 8.98998 17.93C8.69781 17.9518 8.40427 17.9137 8.12737 17.818C7.85046 17.7223 7.59604 17.571 7.37972 17.3734C7.1634 17.1758 6.98973 16.9361 6.8694 16.669C6.74908 16.4018 6.68462 16.1129 6.67998 15.82C6.56998 13.37 6.55998 10.9 6.67998 8.45C6.6977 8.14506 6.77599 7.84672 6.91027 7.57236C7.04454 7.29801 7.23212 7.05313 7.46205 6.85206C7.69199 6.65098 7.95966 6.49772 8.24947 6.40122C8.53928 6.30472 8.8454 6.26691 9.14998 6.29C10.24 6.27 11.36 6.32 12.46 6.32ZM12.52 15.97C13.515 15.9545 14.465 15.5524 15.1687 14.8487C15.8723 14.145 16.2745 13.195 16.29 12.2C16.29 11.1816 15.8854 10.2049 15.1653 9.48472C14.4451 8.76458 13.4684 8.36001 12.45 8.36001C11.4315 8.36001 10.4548 8.76458 9.7347 9.48472C9.01456 10.2049 8.60997 11.1816 8.60997 12.2C8.61644 12.7051 8.72302 13.2039 8.92354 13.6675C9.12406 14.1311 9.41455 14.5504 9.77819 14.901C10.1418 15.2516 10.5714 15.5266 11.042 15.7101C11.5126 15.8936 12.015 15.9819 12.52 15.97ZM17.66 8.31C17.05 7.89 16.71 7.47 16.34 7.45C15.97 7.43 15.48 7.97 15.52 8.17C15.59 8.55 15.98 9.1 16.29 9.17C16.6 9.24 17.02 8.73 17.66 8.31Z" fill="#0E4E8C"/>
<path d="M12.59 9.86001C12.9048 9.86504 13.2151 9.93579 13.501 10.0677C13.7869 10.1997 14.042 10.3899 14.2501 10.6262C14.4582 10.8626 14.6146 11.1397 14.7093 11.44C14.804 11.7403 14.8349 12.0571 14.8 12.37C14.7816 12.6786 14.7026 12.9806 14.5675 13.2587C14.4325 13.5367 14.2439 13.7855 14.0127 13.9907C13.7815 14.1959 13.5121 14.3536 13.22 14.4547C12.9278 14.5558 12.6186 14.5984 12.31 14.58C12.0014 14.5616 11.6995 14.4826 11.4214 14.3475C11.1433 14.2125 10.8945 14.0239 10.6893 13.7927C10.4841 13.5615 10.3264 13.2921 10.2253 13C10.1242 12.7078 10.0816 12.3986 10.1 12.09C10.101 11.7749 10.1682 11.4635 10.2972 11.176C10.4262 10.8885 10.6142 10.6313 10.8489 10.4211C11.0837 10.2108 11.3599 10.0523 11.6599 9.95562C11.9598 9.85896 12.2767 9.82639 12.59 9.86001Z" fill="#0E4E8C"/>
</svg>
