<svg width="24" height="24" viewBox="0 0 24 24" fill="none" xmlns="http://www.w3.org/2000/svg">
<path d="M11.76 23.71C9.48079 23.67 7.26473 22.9547 5.39225 21.6546C3.51977 20.3545 2.07508 18.5282 1.24104 16.4067C0.406999 14.2852 0.221103 11.964 0.706888 9.73678C1.19267 7.5096 2.32829 5.47661 3.97001 3.89512C5.61173 2.31364 7.68574 1.25477 9.92951 0.852535C12.1733 0.450301 14.486 0.72279 16.5748 1.63551C18.6637 2.54823 20.4348 4.06014 21.6639 5.97989C22.8931 7.89963 23.5252 10.1409 23.48 12.42C23.4606 13.9335 23.1411 15.4281 22.5399 16.8172C21.9387 18.2064 21.0678 19.4624 19.9777 20.5125C18.8876 21.5626 17.5999 22.3859 16.1893 22.9348C14.7787 23.4837 13.2732 23.7472 11.76 23.71ZM18.87 18.55C18.9692 16.3073 18.9525 14.061 18.82 11.82C18.57 9.47999 16.27 8.40999 14.12 9.41999C13.74 9.59999 13.39 9.84999 13.03 10.06C12.24 9.17999 11.98 9.12999 10.11 9.55999V18.49H13.02C13.02 16.69 13.02 15 13.02 13.31C13.003 13.0868 13.0362 12.8626 13.1171 12.6539C13.198 12.4451 13.3246 12.2571 13.4876 12.1037C13.6506 11.9503 13.8459 11.8353 14.0592 11.7672C14.2724 11.699 14.4982 11.6795 14.72 11.71C15.72 11.77 15.92 12.53 15.98 13.35C15.98 13.89 15.98 14.44 15.98 14.99C15.98 16.17 15.98 17.34 15.98 18.55H18.87ZM5.44999 9.41999V18.47H8.24V9.41999H5.44999ZM8.56001 6.58C8.57081 6.12451 8.40149 5.68314 8.08882 5.35174C7.77614 5.02034 7.34534 4.82567 6.88999 4.80999C6.67163 4.79788 6.45304 4.8293 6.24693 4.90242C6.04082 4.97554 5.85131 5.08891 5.6894 5.23593C5.5275 5.38295 5.39644 5.56068 5.30384 5.7588C5.21124 5.95692 5.15895 6.17148 5.15 6.39C5.14315 6.62082 5.18337 6.85062 5.26826 7.06538C5.35315 7.28014 5.48089 7.47535 5.64372 7.63911C5.80654 7.80287 6.00104 7.93173 6.21531 8.01785C6.42958 8.10396 6.65913 8.14553 6.88999 8.14C7.3138 8.13856 7.7214 7.977 8.03111 7.68769C8.34081 7.39839 8.52974 7.00272 8.56001 6.58Z" fill="#0E4E8C"/>
</svg>
