<?xml version="1.0" encoding="UTF-8"?>
<svg id="Layer_1" data-name="Layer 1" xmlns="http://www.w3.org/2000/svg" version="1.1" viewBox="0 0 1000 1000">
  <defs>
    <style>
      .cls-1 {
        fill: #00aea8;
      }

      .cls-1, .cls-2, .cls-3, .cls-4, .cls-5, .cls-6, .cls-7, .cls-8, .cls-9, .cls-10, .cls-11, .cls-12, .cls-13 {
        stroke-width: 0px;
      }

      .cls-1, .cls-10 {
        fill-rule: evenodd;
      }

      .cls-2 {
        fill: #0e4e8c;
      }

      .cls-3 {
        fill: #51b7e7;
      }

      .cls-4 {
        fill: #e8a324;
      }

      .cls-5 {
        fill: #d50045;
      }

      .cls-6, .cls-14 {
        fill: #000;
      }

      .cls-15 {
        fill: none;
        stroke: #000;
      }

      .cls-7 {
        fill: #0055a4;
      }

      .cls-8 {
        fill: #2e2c72;
      }

      .cls-9 {
        fill: #e8a325;
      }

      .cls-10, .cls-13 {
        fill: #fff;
      }

      .cls-11 {
        fill: #70be54;
      }

      .cls-12 {
        fill: #0080b6;
      }

      .cls-14 {
        font-family: Raleway-Medium, Raleway;
        font-size: 26.58px;
        font-weight: 500;
      }
    </style>
  </defs>
  <g>
    <g>
      <path class="cls-8" d="M728.77,357.4c-.04-.06-.04-.12-.05-.18-.01,0-.01-.01-.01-.02-.38-1.24-.9-2.46-1.36-3.68-2.58-5.15-7.84-8.71-13.98-8.71-5.29,0-9.95,2.63-12.8,6.65-2.04,3.49-3.4,8.38-1.57,14.96.03,0,.17.41.33,1,.12.38.23.84.36,1.42,1.61,5.14,2.48,10.59,2.48,16.26,0,8.33-1.92,16.18-5.27,23.22-1.09,2.44-2.36,4.83-3.99,7.13-3.11,4.59-6.91,8.65-11.24,12.1-6.31,5.91-20.67,15.76-41.94,11.12-5.62-.87-10.9-2.65-15.81-5.09,5.27,4.9,28.88,22.36,66.63,7.65,14.03-6.22,25.62-16.91,32.92-30.31.08-.16.16-.34.24-.5.58-1.08,1.08-2.22,1.61-3.35,3.51-8.17,6.02-18.32,6.42-30.67-.14-6.59-1.12-12.98-2.96-19"/>
      <path class="cls-3" d="M700.46,372.56s-.03-.08-.04-.12v-.02c-.31-.96-.69-1.87-1.04-2.82-1.98-3.94-6.02-6.67-10.72-6.67-4.07,0-7.62,2-9.8,5.1-1.57,2.67-2.61,6.42-1.22,11.47.02,0,.12.3.27.76.08.28.16.64.27,1.08,1.23,3.94,1.89,8.12,1.89,12.47,0,6.38-1.47,12.38-4.03,17.78-.85,1.88-1.82,3.71-3.06,5.47-2.39,3.51-5.3,6.63-8.62,9.27-4.83,4.54-15.84,12.07-32.14,8.5-4.29-.65-8.35-2-12.11-3.87,4.04,3.73,22.14,17.12,51.07,5.85,10.75-4.77,19.64-12.96,25.22-23.23.05-.12.13-.25.18-.37.45-.85.84-1.73,1.24-2.58,2.69-6.26,4.62-14.04,4.92-23.5-.12-5.05-.86-9.94-2.27-14.56"/>
      <path class="cls-4" d="M596.6,398.91c0,.06.02.11.04.17v.02c.4,1.25.91,2.45,1.36,3.67,2.58,5.17,7.84,8.73,14.01,8.73,5.28,0,9.94-2.65,12.78-6.65,2.04-3.5,3.4-8.39,1.57-14.98-.02,0-.16-.4-.34-1-.09-.37-.21-.82-.34-1.4-1.62-5.14-2.48-10.59-2.48-16.26,0-8.32,1.92-16.18,5.27-23.22,1.09-2.44,2.38-4.83,4-7.13,3.1-4.6,6.92-8.66,11.24-12.11,6.29-5.91,20.65-15.74,41.93-11.09,5.62.85,10.91,2.62,15.81,5.07-5.27-4.88-28.88-22.35-66.63-7.66-14.02,6.24-25.63,16.93-32.92,30.34-.07.15-.15.34-.24.48-.57,1.1-1.09,2.23-1.62,3.37-3.51,8.15-6.01,18.31-6.41,30.67.13,6.59,1.11,12.97,2.96,18.99"/>
      <path class="cls-2" d="M604.81,458.75h12.05c4.7,0,7.05,2.63,7.05,7.88v11.35c0,4.01-1.22,6.55-3.66,7.62l4.3,19.17h-5.84l-4.05-18.59h-3.71v18.59h-6.15v-46.03ZM610.96,480.93h4.04c1.84,0,2.75-1.11,2.75-3.33v-9.93c0-2.22-.91-3.34-2.75-3.34h-4.04v16.6Z"/>
      <path class="cls-2" d="M636.15,504.78c-4.96,0-7.44-2.6-7.44-7.83v-30.32c0-5.25,2.46-7.88,7.38-7.88h5.89c4.91,0,7.37,2.63,7.37,7.88v30.32c0,5.23-2.48,7.83-7.43,7.83h-5.77ZM637.63,499.2h3.14c1.63,0,2.44-.89,2.44-2.68v-29.49c0-1.8-.92-2.7-2.76-2.7h-2.88c-1.8,0-2.7.9-2.7,2.7v29.49c0,1.79.93,2.68,2.76,2.68"/>
      <path class="cls-2" d="M674.81,458.75v37.31c0,5.8-2.47,8.72-7.44,8.72h-5.19c-4.92,0-7.37-2.93-7.37-8.79v-37.24h6.15v37.44c0,2,.89,3.01,2.69,3.01h2.5c1.66,0,2.5-1,2.5-3.01v-37.44h6.15Z"/>
      <polygon class="cls-2" points="693.33 481 693.33 458.75 699.49 458.75 699.49 504.78 693.33 504.78 693.33 495.61 686.73 474.65 686.73 504.78 680.59 504.78 680.59 458.75 686.73 458.75 693.33 481"/>
      <path class="cls-2" d="M705.26,504.78v-46.03h10.7c5.77,0,8.65,2.95,8.65,8.85v30.51c0,4.44-2.45,6.67-7.37,6.67h-11.98ZM711.42,499.2h4.61c1.61,0,2.44-.67,2.44-2.04v-29.49c0-2.22-.92-3.34-2.76-3.34h-4.29v34.87Z"/>
      <rect class="cls-9" x="604.61" y="511.09" width="5.71" height="42.74"/>
      <path class="cls-9" d="M627.82,522.59v-3.76c0-1.7-.83-2.55-2.5-2.55h-.9c-1.63,0-2.44.85-2.44,2.55v7.09c0,.8.17,1.32.47,1.6.32.28.84.64,1.55,1.07l5.41,2.92c1.2.68,2.04,1.19,2.54,1.58.5.38.89.84,1.17,1.36.28.54.41,1.57.41,3.07v9.11c0,4.8-2.3,7.19-6.9,7.19h-3.52c-4.56,0-6.84-2.61-6.84-7.86v-2.14h5.71v2.34c0,1.65.85,2.49,2.57,2.49h1.01c1.5,0,2.26-.84,2.26-2.49v-7.27c0-.8-.17-1.34-.48-1.6-.31-.28-.83-.64-1.55-1.08l-5.42-3.03c-1.19-.64-2.05-1.18-2.59-1.61-.53-.44-.92-1-1.15-1.7-.25-.69-.36-1.59-.36-2.7v-8.76c0-4.89,2.28-7.33,6.84-7.33h3.57c4.56,0,6.85,2.44,6.85,7.33v4.17h-5.71Z"/>
      <polygon class="cls-9" points="653.06 553.83 639.48 553.83 639.48 511.09 645.2 511.09 645.2 548.66 653.06 548.66 653.06 553.83"/>
      <path class="cls-9" d="M662.93,553.83h-5.71v-35.41c0-4.89,2.28-7.33,6.85-7.33h4.29c4.56,0,6.84,2.44,6.84,7.33v35.41h-5.71v-15.65h-6.55v15.65ZM669.48,533v-14.22c0-1.67-.83-2.5-2.5-2.5h-1.54c-1.67,0-2.51.83-2.51,2.5v14.22h6.55Z"/>
      <polygon class="cls-9" points="693.29 531.75 693.29 511.09 699 511.09 699 553.83 693.29 553.83 693.29 545.33 687.15 525.87 687.15 553.83 681.45 553.83 681.45 511.09 687.15 511.09 693.29 531.75"/>
      <path class="cls-9" d="M705.55,553.83v-42.74h9.94c5.35,0,8.03,2.73,8.03,8.23v28.32c0,4.13-2.28,6.19-6.84,6.19h-11.14ZM711.26,548.66h4.3c1.5,0,2.26-.65,2.26-1.9v-27.38c0-2.06-.86-3.09-2.56-3.09h-3.99v32.38Z"/>
    </g>
    <g>
      <path class="cls-12" d="M302.15,485.13c0,10.27-5.97,18.95-16.94,18.95s-16.94-8.68-16.94-18.95,5.97-18.95,16.94-18.95,16.94,8.67,16.94,18.95ZM272.64,485.13c0,7.63,4.17,15.27,12.57,15.27s12.56-7.64,12.56-15.27-4.16-15.27-12.56-15.27-12.57,7.64-12.57,15.27Z"/>
      <path class="cls-12" d="M333.94,478.46c-1.17-5.34-4.44-8.61-10.13-8.61-8.4,0-12.57,7.64-12.57,15.27s4.16,15.27,12.57,15.27c5.41,0,9.85-4.24,10.41-10.21h4.37c-1.17,8.61-6.8,13.88-14.78,13.88-10.97,0-16.94-8.68-16.94-18.95s5.97-18.95,16.94-18.95c7.63,0,13.53,4.1,14.51,12.29h-4.38Z"/>
      <path class="cls-12" d="M347.26,486.31c.07,6.38,3.4,14.09,11.8,14.09,6.39,0,9.86-3.75,11.24-9.17h4.38c-1.87,8.12-6.59,12.84-15.62,12.84-11.38,0-16.17-8.75-16.17-18.95,0-9.44,4.79-18.95,16.17-18.95s16.1,10.07,15.76,20.13h-27.56ZM370.45,482.63c-.2-6.6-4.3-12.77-11.38-12.77s-11.11,6.25-11.8,12.77h23.18Z"/>
      <path class="cls-12" d="M380.31,478.19c.41-8.4,6.31-12.01,14.51-12.01,6.32,0,13.18,1.95,13.18,11.52v19.02c0,1.67.84,2.64,2.57,2.64.49,0,1.04-.14,1.39-.28v3.68c-.97.21-1.67.28-2.85.28-4.44,0-5.14-2.5-5.14-6.25h-.14c-3.05,4.65-6.17,7.29-13.05,7.29s-12.01-3.26-12.01-10.48c0-10.06,9.79-10.42,19.23-11.52,3.61-.42,5.63-.9,5.63-4.86,0-5.9-4.24-7.36-9.38-7.36-5.41,0-9.44,2.5-9.58,8.33h-4.37ZM403.63,483.46h-.14c-.55,1.04-2.5,1.39-3.68,1.6-7.42,1.32-16.66,1.25-16.66,8.26,0,4.37,3.88,7.08,7.98,7.08,6.66,0,12.56-4.24,12.5-11.25v-5.69Z"/>
      <path class="cls-12" d="M416.68,467.22h4.37v6.18h.14c1.6-4.31,6.39-7.22,11.46-7.22,10.06,0,13.12,5.28,13.12,13.81v23.05h-4.37v-22.36c0-6.17-2.02-10.83-9.1-10.83s-11.11,5.28-11.24,12.29v20.89h-4.37v-35.82Z"/>
      <path class="cls-11" d="M454.03,467.22h4.02v6.8h.14c2.02-4.86,7.01-7.84,12.77-7.84,10.9,0,16.11,8.82,16.11,18.95s-5.21,18.95-16.11,18.95c-5.34,0-10.54-2.71-12.42-7.84h-.14v20.06h-4.37v-49.08ZM470.96,469.86c-9.64,0-12.56,7.15-12.56,15.27,0,7.43,3.26,15.27,12.56,15.27,8.33,0,11.73-7.85,11.73-15.27s-3.4-15.27-11.73-15.27Z"/>
      <path class="cls-11" d="M493.93,453.47h4.38v7.01h-4.38v-7.01ZM493.93,467.22h4.38v35.82h-4.38v-35.82Z"/>
      <path class="cls-11" d="M531.98,478.46c-1.19-5.34-4.45-8.61-10.14-8.61-8.4,0-12.57,7.64-12.57,15.27s4.17,15.27,12.57,15.27c5.41,0,9.86-4.24,10.41-10.21h4.38c-1.18,8.61-6.8,13.88-14.78,13.88-10.97,0-16.94-8.68-16.94-18.95s5.97-18.95,16.94-18.95c7.63,0,13.53,4.1,14.51,12.29h-4.37Z"/>
      <path class="cls-11" d="M542.73,453.47h4.38v31.1l19.85-17.35h5.84l-15.28,13.26,16.32,22.56h-5.49l-14.16-19.5-7.08,5.9v13.6h-4.38v-49.57Z"/>
      <g>
        <path class="cls-11" d="M320.55,416.44s3.14-.4,5.73,5.02c0,0,1.23-14.84,18.75-17.67,17.52-2.84,47.64-.23,58.14,5.48,10.51,5.71,54.85,14.83,54.85,14.83,0,0-32.19-12.35-45.94-20.2-13.75-7.85-31.04-9.94-52.01-5.82-20.98,4.11-29.59,10.09-32.5,14.07-2.9,3.98-7.01,4.29-7.01,4.29Z"/>
        <polygon class="cls-11" points="291.47 409.44 300.14 407.74 292.91 411.21 290.84 411.22 291.47 409.44"/>
        <polygon class="cls-12" points="313.57 411.73 325.51 407.68 316.86 412.51 313.57 411.73"/>
        <path class="cls-11" d="M275.14,409.44s6.02-4.82,11.58-6.24c5.57-1.42,16.78-2.34,16.78-2.34,0,0-14.8,4.73-17.63,5.8-2.82,1.07-10.74,2.78-10.74,2.78Z"/>
        <path class="cls-12" d="M341.94,386.62s15.93-7.9,26-7.72c10.08.17,34.67,6.59,34.67,6.59,0,0-24.73-1.21-30.33-1.31-5.6-.09-20.46,1.05-28.51,3.09l-1.84-.65Z"/>
        <path class="cls-11" d="M389.9,394.9s14.16-9.27,19.36-8.57c5.19.71,31.12,10.79,31.12,10.79,0,0-27.01-4.83-33.91-4.45-6.89.39-16.56,2.23-16.56,2.23Z"/>
        <path class="cls-11" d="M375.15,377.12s22.1-1.97,40.3,1.25l-24.67,1.81-15.63-3.07Z"/>
        <path class="cls-12" d="M426.26,400.4s32.09,19.2,57.28,13.24c0,0-23.64.49-57.28-13.24Z"/>
        <path class="cls-11" d="M467.22,398.7c-.89-.32,22.65,4.99,32.05,2.29,9.39-2.69,37.09-14.7,65.33-2.13l-.54,2.07s-25.24-7.21-38.93-2.46c-13.69,4.75-35.92,8.17-57.91.23Z"/>
        <path class="cls-11" d="M494.92,412.78s15.06-6.52,47.67-7.41l-7.81,1.94-18.82,3.32-21.04,2.16Z"/>
        <path class="cls-12" d="M418.06,379.48s13.29,2.25,33.04,3.2c19.75.95,19.34,5.31,47.38,3,0,0,13.5-10.07,43.92,2.16,0,0-20.72.2-29.45,3.13l-12.98-4.2s-13.26,6.21-39.79,5.31l-42.12-12.6Z"/>
        <path class="cls-12" d="M507.47,425.65s8.29-3.27,17.26-4.23c8.97-.97,20.37-5.59,20.37-5.59,0,0-11.81,6.35-20.25,8.44-8.43,2.1-13.68,1-17.38,1.38Z"/>
        <path class="cls-11" d="M476.92,430.84s9.11,3.97,18.66-4.49l.58-1.11-6.9.39s-6.19,4.76-12.35,5.22Z"/>
        <path class="cls-12" d="M505.73,426.35l-8.71,1.25s4.23-8.27,22.64-13.61l-7.24,4.02s-6.22,3.81-6.45,7.67"/>
        <path class="cls-11" d="M481.42,371.22s7.9,8.98,8.84,12.7l2.98-.45s-6.43-9.97-11.82-12.25Z"/>
        <path class="cls-11" d="M488.21,373.81s6.11,6.09,7.61,9.82l1.58-.76-9.2-9.06Z"/>
      </g>
    </g>
  </g>
  <g>
    <g>
      <g>
        <path class="cls-1" d="M485.03,636.21c0,3.75-3.07,6.82-6.81,6.82h-118.65c-3.75,0-6.81-3.07-6.81-6.82v-48.46c0-3.75,3.07-6.82,6.81-6.82h118.65c3.75,0,6.81,3.07,6.81,6.82v48.46Z"/>
        <path class="cls-13" d="M478.21,644.27h-118.65c-4.44,0-8.06-3.62-8.06-8.06v-48.46c0-4.45,3.61-8.06,8.06-8.06h118.65c4.44,0,8.06,3.62,8.06,8.06v48.46c0,4.45-3.61,8.06-8.06,8.06h0ZM359.57,582.17c-3.07,0-5.57,2.5-5.57,5.58v48.46c0,3.08,2.5,5.58,5.57,5.58h118.65c3.07,0,5.57-2.5,5.57-5.58v-48.46c0-3.08-2.5-5.58-5.57-5.58h-118.65Z"/>
      </g>
      <g>
        <path class="cls-13" d="M359.38,592.17v-5.28h4.52v1.23h-2.61v.96h2.08v1.23h-2.08v1.85h-1.9Z"/>
        <path class="cls-13" d="M363.55,592.17l2.08-5.28h1.94l2.08,5.28h-1.89l-.23-.7h-1.89l-.22.7h-1.86ZM366.58,588.49l-.59,1.89h1.2l-.61-1.89Z"/>
        <path class="cls-13" d="M371.89,590.33v1.84h-1.9v-5.28h2.74c1.94,0,2.57.48,2.57,1.5,0,.61-.3,1.12-.98,1.29.61.21.98.34.98,1.4,0,.69-.02.92.2.92v.16h-1.93c-.05-.12-.1-.45-.1-.92,0-.69-.13-.92-1.02-.92h-.58ZM371.89,589.18h.75c.59,0,.9-.13.9-.5s-.32-.55-.77-.55h-.89v1.05Z"/>
        <path class="cls-13" d="M376.09,592.17v-5.28h2.3l1.02,3.29,1.02-3.29h2.3v5.28h-1.71v-1.61l.02-.82.1-.95h-.02l-1.06,3.39h-1.32l-1.06-3.39h-.02l.08.78.04.82v1.79h-1.71Z"/>
        <path class="cls-13" d="M383.74,592.17v-5.28h4.73v1.23h-2.83v.75h2.39v1.23h-2.39v.83h2.94v1.23h-4.85Z"/>
        <path class="cls-13" d="M389.28,592.17v-5.28h2.55c1.87,0,3.03.79,3.03,2.53,0,1.99-1.22,2.75-3.08,2.75h-2.5ZM391.18,590.94h.4c.89,0,1.37-.43,1.37-1.42,0-1.1-.4-1.39-1.41-1.39h-.36v2.82Z"/>
        <path class="cls-13" d="M361.18,598.3v1.84h-1.9v-5.28h2.74c1.94,0,2.57.48,2.57,1.5,0,.61-.3,1.12-.98,1.29.61.21.98.34.98,1.4,0,.69-.02.92.2.92v.16h-1.93c-.05-.12-.1-.45-.1-.92,0-.69-.13-.92-1.02-.92h-.58ZM361.18,597.14h.75c.59,0,.9-.13.9-.5s-.32-.55-.77-.55h-.89v1.05Z"/>
        <path class="cls-13" d="M365.54,600.14v-5.28h4.73v1.23h-2.83v.75h2.39v1.23h-2.39v.83h2.94v1.23h-4.85Z"/>
        <path class="cls-13" d="M374.07,596.39c-.03-.18-.14-.29-.27-.36-.14-.07-.31-.1-.49-.1-.42,0-.6.11-.6.3,0,.79,3.34.3,3.34,2.22,0,1.22-1.12,1.82-2.72,1.82s-2.53-.81-2.57-1.77h1.82c.04.19.15.33.31.42.15.09.35.13.54.13.48,0,.79-.14.79-.39,0-.8-3.34-.25-3.34-2.27,0-1.12,1.06-1.69,2.52-1.69,1.61,0,2.35.75,2.48,1.67h-1.81Z"/>
        <path class="cls-13" d="M376.62,600.14v-5.28h2.8c1.67,0,2.48.7,2.48,1.78s-.74,1.85-2.41,1.85h-.96v1.64h-1.9ZM379.32,597.27c.44,0,.77-.16.77-.62,0-.49-.61-.56-1.02-.56h-.54v1.17h.79Z"/>
        <path class="cls-13" d="M388.47,597.47c0,1.8-1.33,2.81-3.05,2.81-1.82,0-3.04-1.03-3.04-2.82,0-1.66,1.23-2.73,3.04-2.73,2.07,0,3.05,1.36,3.05,2.75ZM384.28,597.47c0,.67.23,1.52,1.14,1.52.82,0,1.14-.65,1.14-1.52,0-.72-.32-1.48-1.16-1.46-.86,0-1.12.79-1.12,1.46Z"/>
        <path class="cls-13" d="M393.06,597.74l-.07-1.2v-1.68h1.82v5.28h-1.78l-2.07-2.87.07,1.2v1.67h-1.82v-5.28h1.78l2.07,2.88Z"/>
        <path class="cls-13" d="M398.75,596.39c-.03-.18-.14-.29-.27-.36-.14-.07-.31-.1-.49-.1-.42,0-.6.11-.6.3,0,.79,3.34.3,3.34,2.22,0,1.22-1.12,1.82-2.72,1.82s-2.53-.81-2.57-1.77h1.82c.04.19.15.33.31.42.15.09.35.13.54.13.48,0,.79-.14.79-.39,0-.8-3.34-.25-3.34-2.27,0-1.12,1.06-1.69,2.52-1.69,1.61,0,2.35.75,2.48,1.67h-1.81Z"/>
        <path class="cls-13" d="M401.37,600.14v-5.28h1.9v5.28h-1.9Z"/>
        <path class="cls-13" d="M404.21,600.14v-5.28h2.77c1.31,0,2.35.28,2.35,1.33,0,.54-.39.94-.76,1.15.63.15.97.64.97,1.21,0,1.18-.99,1.59-2.5,1.59h-2.83ZM406.11,596.09v.88h.79c.38,0,.65-.15.65-.46,0-.41-.37-.42-.77-.42h-.67ZM406.11,597.93v.98h.83c.47,0,.82-.09.82-.48,0-.46-.44-.49-1.05-.49h-.6Z"/>
        <path class="cls-13" d="M410.34,600.14v-5.28h1.9v4.05h2.61v1.23h-4.52Z"/>
        <path class="cls-13" d="M418.06,600.14h-1.9v-1.92l-2.16-3.36h2.13l1,1.79,1-1.79h2.1l-2.16,3.33v1.95Z"/>
      </g>
      <g>
        <path class="cls-13" d="M370.55,618.73l-.29-1.61c-1.7,1.59-3.43,2.05-5.68,2.05-2.85,0-5.39-1.41-5.39-4.56,0-6.86,10.76-3.75,10.76-6.57,0-1.1-1.33-1.24-1.96-1.24-.84,0-1.96.17-2.1,1.47h-5.77c0-3.2,2.28-5.07,8.25-5.07,7.15,0,7.58,2.65,7.58,6.26v7.06c0,.87.03,1.3.81,1.93v.29h-6.2ZM369.95,612.04c-1.96.95-4.56.49-4.56,2.45,0,.75.72,1.27,1.9,1.27,2.1,0,2.8-1.64,2.65-3.72Z"/>
        <path class="cls-13" d="M383.13,614.03c0,.61.23,1.07.63,1.38.37.29.89.46,1.47.46.92,0,1.9-.29,1.9-1.36,0-2.42-9.26-.49-9.26-6.34,0-3.86,4.01-4.99,7.15-4.99s7.15.75,7.5,4.76h-5.45c-.06-.49-.26-.84-.58-1.1-.32-.26-.75-.37-1.21-.37-1.04,0-1.7.32-1.7,1.07,0,2.1,9.54.69,9.54,6.34,0,3.14-2.6,5.28-8.13,5.28-3.46,0-7.27-1.07-7.58-5.13h5.71Z"/>
        <path class="cls-13" d="M404.78,609.39c-.03-.66-.26-1.18-.63-1.56-.37-.4-.89-.61-1.56-.61-2.25,0-2.62,2.34-2.62,4.12,0,2.28.87,3.78,2.62,3.78,1.56,0,2.16-1.07,2.34-2.25h6.06c-.26,2.28-1.3,3.86-2.83,4.87-1.5.98-3.46,1.41-5.57,1.41-4.87,0-8.62-2.74-8.62-7.84s3.63-8.13,8.62-8.13c4.04,0,7.84,1.73,8.28,6.2h-6.08Z"/>
      </g>
      <g>
        <path class="cls-13" d="M363.66,625.45c-.11-.36-.32-1.03-1.45-1.03-.66,0-1.63.4-1.63,2.08,0,1.07.47,2.03,1.63,2.03.76,0,1.29-.39,1.45-1.12h1.37c-.27,1.3-1.21,2.2-2.85,2.2-1.74,0-3-1.07-3-3.13s1.32-3.15,3.01-3.15c1.96,0,2.76,1.23,2.83,2.11h-1.37Z"/>
        <path class="cls-13" d="M370.79,624.55h-3.48v1.25h3.2v1.05h-3.2v1.54h3.63v1.05h-4.98v-5.96h4.82v1.05Z"/>
        <path class="cls-13" d="M371.95,623.5h3.32c1.74,0,2.06,1.17,2.06,1.69,0,.66-.37,1.22-1.01,1.42.54.22.83.4.83,1.51,0,.87,0,1.09.29,1.19v.16h-1.52c-.09-.28-.15-.59-.15-1.2,0-.81-.05-1.13-1.07-1.13h-1.42v2.33h-1.34v-5.96ZM374.9,626.12c.71,0,1.06-.22,1.06-.81,0-.32-.16-.78-.96-.78h-1.71v1.59h1.61Z"/>
        <path class="cls-13" d="M381.27,629.46h-1.37v-4.91h-1.98v-1.05h5.33v1.05h-1.98v4.91Z"/>
        <path class="cls-13" d="M385.29,629.46h-1.37v-5.96h1.37v5.96Z"/>
        <path class="cls-13" d="M387.88,629.46h-1.37v-5.96h4.67v1.05h-3.3v1.35h2.89v1.05h-2.89v2.51Z"/>
        <path class="cls-13" d="M393.26,629.46h-1.37v-5.96h1.37v5.96Z"/>
        <path class="cls-13" d="M399.31,624.55h-3.48v1.25h3.2v1.05h-3.2v1.54h3.63v1.05h-4.98v-5.96h4.82v1.05Z"/>
        <path class="cls-13" d="M400.47,623.5h2.9c2.21,0,2.67,1.71,2.67,2.84,0,1.28-.56,3.12-2.72,3.12h-2.84v-5.96ZM401.81,628.43h1.33c1.11,0,1.49-1.02,1.49-2,0-1.76-.92-1.9-1.51-1.9h-1.32v3.9Z"/>
      </g>
      <g>
        <path class="cls-13" d="M360.4,637.14h-1.1l1.79-4.56h1.21l1.77,4.56h-1.14l-.32-.94h-1.85l-.35.94ZM361.03,635.42h1.28l-.62-1.8h-.01l-.64,1.8Z"/>
        <path class="cls-13" d="M365.34,635.74c0,.25.15.74,1.06.74.5,0,1.05-.11,1.05-.59,0-.36-.38-.45-.91-.57l-.54-.11c-.81-.17-1.59-.34-1.59-1.34,0-.51.3-1.4,1.93-1.4,1.54,0,1.95.92,1.96,1.47h-1.01c-.03-.2-.11-.69-1.03-.69-.4,0-.87.13-.87.55,0,.36.32.43.53.48l1.22.27c.68.15,1.31.41,1.31,1.23,0,1.37-1.54,1.49-1.98,1.49-1.83,0-2.15-.96-2.15-1.53h1.01Z"/>
        <path class="cls-13" d="M372.39,634.08c-.08-.27-.24-.79-1.11-.79-.5,0-1.24.31-1.24,1.6,0,.82.36,1.56,1.24,1.56.58,0,.99-.3,1.11-.86h1.05c-.21.99-.92,1.68-2.18,1.68-1.34,0-2.29-.82-2.29-2.4s1.01-2.41,2.31-2.41c1.5,0,2.11.94,2.17,1.61h-1.05Z"/>
        <path class="cls-13" d="M375.97,635.31h-1.95v-.83h1.95v.83Z"/>
        <path class="cls-13" d="M377.37,637.14h-1.1l1.79-4.56h1.21l1.77,4.56h-1.14l-.32-.94h-1.85l-.35.94ZM378,635.42h1.28l-.62-1.8h-.01l-.64,1.8Z"/>
        <path class="cls-13" d="M385.5,637.48l-.59-.51c-.48.25-.99.3-1.29.3-.66,0-2.41-.26-2.41-2.4s1.75-2.4,2.41-2.4,2.41.26,2.41,2.4c0,.75-.22,1.27-.52,1.63l.55.47-.55.51ZM384.22,635.39l.53.45c.14-.24.23-.55.23-.98,0-1.28-.8-1.6-1.36-1.6s-1.36.32-1.36,1.6.8,1.6,1.36,1.6c.17,0,.38-.03.57-.12l-.5-.43.54-.51Z"/>
        <path class="cls-13" d="M390.85,635.55c0,1.2-.8,1.72-2.06,1.72-.46,0-1.15-.1-1.59-.55-.27-.28-.38-.65-.39-1.11v-3.02h1.07v2.96c0,.64.41.92.89.92.72,0,1.01-.32,1.01-.87v-3.01h1.07v2.97Z"/>
        <path class="cls-13" d="M392.32,637.14h-1.1l1.79-4.56h1.21l1.77,4.56h-1.14l-.32-.94h-1.85l-.35.94ZM392.95,635.42h1.28l-.62-1.8h-.01l-.64,1.8Z"/>
        <path class="cls-13" d="M397.74,637.14h-1.05v-.93h1.05v.93Z"/>
        <path class="cls-13" d="M400.69,632.46c.66,0,2.41.26,2.41,2.4s-1.75,2.4-2.41,2.4-2.41-.26-2.41-2.4,1.75-2.4,2.41-2.4ZM400.69,636.46c.57,0,1.36-.32,1.36-1.6s-.8-1.6-1.36-1.6-1.36.32-1.36,1.6.8,1.6,1.36,1.6Z"/>
        <path class="cls-13" d="M403.89,632.58h2.54c1.34,0,1.58.9,1.58,1.29,0,.5-.28.93-.78,1.09.41.17.64.31.64,1.16,0,.67,0,.83.22.91v.12h-1.16c-.07-.22-.11-.45-.11-.92,0-.62-.04-.86-.82-.86h-1.08v1.79h-1.03v-4.56ZM406.15,634.59c.55,0,.81-.17.81-.62,0-.24-.12-.6-.73-.6h-1.31v1.22h1.23Z"/>
        <path class="cls-13" d="M411.18,634.69h2.1v2.46h-.7l-.1-.57c-.27.28-.65.69-1.57.69-1.21,0-2.31-.79-2.31-2.39,0-1.24.75-2.41,2.44-2.41h.01c1.54,0,2.15.91,2.2,1.54h-1.05c0-.18-.36-.75-1.1-.75s-1.44.47-1.44,1.64c0,1.25.75,1.57,1.46,1.57.23,0,1-.08,1.22-1h-1.17v-.77Z"/>
      </g>
      <path class="cls-13" d="M472.16,633.6h-1.27v3.3h-1.24v-3.3h-1.26v-.86h3.78v.86ZM475.76,635.26l1.03-2.52h1.7v4.15h-1.17v-2.83h-.02l-1.09,2.83h-.9l-1.09-2.83h-.02v2.83h-1.18v-4.15h1.7l1.04,2.52Z"/>
      <path class="cls-10" d="M436.49,643.03h-6.77l-17.32-18.36c-1.63-1.61.08-3,1.8-4.71,1.73-1.7,3.04-1.65,4.75-.3,7.66,6.01,13.57,16.96,13.57,16.96,1.15-18.37,7.79-39.37,27.68-55.69h15.4c-1.59,1-4.71,3.5-5.69,4.24-27.23,20.69-29.63,44.44-31.37,53.51-.31,1.62-.66,3.25-2.04,4.34Z"/>
      <g>
        <path class="cls-13" d="M471.63,601.01c-.59-.33-1.31-.08-1.63.56-.31.63-.1,1.41.49,1.74.58.33,1.31.08,1.63-.55.32-.63.1-1.41-.49-1.74Z"/>
        <path class="cls-10" d="M478.33,595.04c-.08-.28-.21-.54-.52-.64-.15-.05-.34-.08-.49-.05-8.53,1.21-16.21,7.04-18.63,15.42-.36,1.26-.7,2.55-.89,3.85-.18,1.22-.28,2.46-.32,3.7-.04,1.15-.03,2.29.04,3.44.07,1.07.19,2.13.22,3.2.03,1.17.01,2.49-1.1,3.18-3.95,2.43-14.02,4.52-13.72,5.82.27,1.21,4.42.81,5.21.79,2.2-.06,4.41-.82,6.62-.5,1.15.17,2.08.61,2.85,1.49.63.72,1.4,2.67,2.68,2.15,1.87-.75.59-5.56-.41-8.53,7-2.36,12.26-4.55,15.66-10.98,1.82-3.43,2.93-7.38,3.3-11.25.08-.86.13-1.72.14-2.59.04-2.27,0-4.69-.34-6.97-.07-.47-.15-.95-.27-1.41,0-.04-.02-.07-.03-.11ZM459.15,624.39c.36-4.44,1.62-11.33,4.16-16.49.17-.35.35-.69.53-1.03.28.99.97,1.85,1.98,2.31,1.52.69,3.26.24,4.28-.98-.26,1.57.54,3.19,2.06,3.88.96.44,2.01.42,2.91.03-.38,1.02-.81,2-1.3,2.93-2.82,5.33-8.18,10.5-14.04,12.87-.01,0-.2-.54-.21-.58-.45-1.58-.36-2.95-.36-2.95ZM475.6,610.57c-.85.3-1.82.29-2.7-.11-1.45-.66-2.24-2.16-2.09-3.65.02-.09.04-.17.05-.26,0,0-.01.02-.02.03,0-.01,0-.02,0-.03-.05.07-.11.14-.16.21-1.03,1.1-2.68,1.48-4.13.82-.93-.43-1.59-1.2-1.9-2.09,2.63-4.2,6.33-7.4,11.59-9.46.44-.17,1.25-.55,1.39.88.14,2.11-.27,8.14-2.04,13.67Z"/>
      </g>
    </g>
    <g>
      <rect class="cls-7" x="502.52" y="579.07" width="145.97" height="65.81" rx="10.54" ry="10.54"/>
      <rect class="cls-7" x="502.52" y="579.07" width="145.97" height="65.81" rx="10.54" ry="10.54"/>
      <g>
        <g>
          <circle class="cls-13" cx="547.87" cy="610.04" r="2.56"/>
          <path class="cls-13" d="M565.33,610.81l-.35-.42c-7.1-8.48-17.51-13.35-28.56-13.35-5.23,0-10.29,1.06-15.04,3.16-2.45,1.08-4.74,2.41-6.88,3.97,3.25-8.98,11.86-15.41,21.94-15.41,6.4,0,12.21,2.59,16.43,6.79,1.22,1.21,2.62,2.24,4.13,3.07.64.35,1.26.71,1.87,1.08,1.08.66,2.31-.55,1.67-1.65-4.93-8.44-14.17-14.08-24.68-13.86-15.03.3-27.19,12.63-27.32,27.66-.13,15.49,12.44,28.12,27.89,28.12,10.71,0,20.03-6.07,24.7-14.95.54-1.03-.62-2.12-1.62-1.51-.18.11-.37.22-.55.33-2.22,1.32-4.25,2.94-6.09,4.76-4.32,4.3-10.3,6.92-16.89,6.79-12.29-.23-22.38-10.11-22.86-22.4-.02-.55-.02-1.09,0-1.63,2.91-2.96,6.3-5.31,10.1-6.99,4.16-1.84,8.6-2.77,13.2-2.77,8.82,0,17.18,3.54,23.31,9.78.25.26.25.67,0,.93-5.57,5.67-12.97,9.11-20.9,9.69-.44.03-.87-.14-1.16-.47-2.19-2.45-3.41-5.61-3.41-8.96,0-1.76.34-3.47.98-5.05.15-.37-.17-.77-.57-.71-.02,0-.04,0-.05,0-2.81.44-4.92,2.85-4.93,5.69,0,.02,0,.04,0,.06,0,4.89,1.92,9.49,5.36,12.88.82.8,1.93,1.22,3.07,1.17,10.41-.47,20.12-5.27,26.85-13.31l.35-.42c.51-.6.51-1.48,0-2.09Z"/>
        </g>
        <path class="cls-13" d="M603.19,595.07h-5.73c-.29,0-.55.19-.64.46l-8.69,25.58h4.24c1.37,0,2.57-.91,2.95-2.22l.93-3.24h8.12l.96,3.26c.07.25.17.48.3.69.04.07.09.14.13.21.14.2.3.38.49.54.12.11.25.2.39.29.14.09.28.16.43.23.07.03.15.06.23.09.31.1.64.16.98.16h4.26l-8.69-25.58c-.09-.28-.35-.46-.64-.46ZM597.74,610.55l1.49-5.06c.21-.72.44-1.66.63-2.5.04-.18.08-.35.12-.52.05-.22.09-.43.13-.61.11-.51.18-.84.18-.84h.07s.07.34.18.84c.04.18.09.39.13.61.04.17.08.34.12.52.19.84.42,1.79.63,2.5l1.46,5.06h-5.14Z"/>
        <path class="cls-13" d="M589.83,611.91c.18-.53.14-1.1-.12-1.6-.62-1.24-1.7-2.3-3.38-2.81v-.07c1.97-1.13,3.02-3.35,3.02-5.54,0-4.48-3.64-6.81-8.85-6.81h-9.58v26.04h9.58c1.85,0,3.65-.27,5.19-.87.96-.38,1.69-1.17,2.02-2.14l2.11-6.2ZM577.3,600.54h3.17c1.71,0,2.4,1.02,2.4,2.22s-.69,2.4-2.29,2.4h-3.28v-4.63ZM581.13,615.65h-3.82v-5.39h3.86c1.86,0,2.73,1.2,2.73,2.66s-.91,2.73-2.77,2.73Z"/>
        <g>
          <rect class="cls-13" x="611.61" y="621.11" width=".92" height="0"/>
          <path class="cls-13" d="M622.43,595.07h-10.82v18.77c0,.25.04.51.12.75l2.07,6.09h0c.09.26.33.43.61.43h3.58v-8.05h4.44c5.06,0,8.49-3.79,8.49-9.03s-3.42-8.96-8.49-8.96ZM621.12,607.6h-3.13v-7.07h3.24c2.11,0,3.21,1.42,3.21,3.5s-1.09,3.57-3.31,3.57Z"/>
        </g>
        <g>
          <path class="cls-13" d="M573.54,624.53c1.31,0,1.99.75,1.99.75l-.6.98s-.59-.54-1.33-.54c-1.02,0-1.5.75-1.5,1.51s.52,1.59,1.5,1.59c.8,0,1.41-.65,1.41-.65l.67.95s-.75.89-2.14.89c-1.66,0-2.78-1.18-2.78-2.75s1.19-2.73,2.78-2.73Z"/>
          <path class="cls-13" d="M579.28,624.62h3.32v1.11h-2.02v.96h1.62v1.11h-1.62v1h2.13v1.11h-3.42v-5.3Z"/>
          <path class="cls-13" d="M586.61,624.62h1.85c.54,0,.8.04,1.03.13.6.23.98.77.98,1.54,0,.56-.27,1.18-.79,1.45h0s.07.11.2.33l1.03,1.85h-1.45l-.94-1.79h-.61v1.79h-1.3v-5.3ZM588.47,627.02c.42,0,.67-.23.67-.65,0-.4-.15-.64-.8-.64h-.44v1.29h.56Z"/>
          <path class="cls-13" d="M595.22,625.73h-1.61v-1.11h4.51v1.11h-1.61v4.19h-1.3v-4.19Z"/>
          <path class="cls-13" d="M601.3,624.62h1.3v5.3h-1.3v-5.3Z"/>
          <path class="cls-13" d="M606.8,624.62h3.25v1.11h-1.95v1.11h1.62v1.11h-1.62v1.96h-1.3v-5.3Z"/>
          <path class="cls-13" d="M613.69,624.62h1.3v5.3h-1.3v-5.3Z"/>
          <path class="cls-13" d="M619.2,624.62h3.32v1.11h-2.02v.96h1.62v1.11h-1.62v1h2.13v1.11h-3.42v-5.3Z"/>
          <path class="cls-13" d="M626.52,624.62h1.88c1.67,0,2.74.97,2.74,2.64s-1.07,2.66-2.74,2.66h-1.88v-5.3ZM628.35,628.8c.9,0,1.45-.53,1.45-1.55s-.57-1.53-1.45-1.53h-.53v3.08h.53Z"/>
        </g>
      </g>
      <path class="cls-13" d="M633.9,595.07c1.22,0,2.2,1,2.2,2.24s-.98,2.25-2.2,2.25-2.18-1-2.18-2.25.97-2.24,2.18-2.24ZM633.9,599.14c.99,0,1.75-.8,1.75-1.83s-.76-1.83-1.75-1.83-1.73.8-1.73,1.83.76,1.83,1.73,1.83ZM633.15,596.15h.89c.44,0,.73.28.73.71,0,.36-.23.57-.42.62h0s.02.04.08.14l.44.85h-.48l-.43-.9h-.38v.9h-.44v-2.32ZM633.95,597.25c.23,0,.38-.15.38-.39s-.15-.38-.38-.38h-.37v.77h.37Z"/>
    </g>
  </g>
  <g>
    <g>
      <path class="cls-6" d="M468.88,674.46c-.1-.56-.25-1.11-.45-1.64-.41-1.07-1-2.02-1.78-2.83-.78-.81-1.73-1.46-2.83-1.94-1.1-.48-2.37-.72-3.75-.72s-2.66.24-3.78.72c-1.12.48-2.09,1.14-2.88,1.96-.79.82-1.4,1.78-1.81,2.86-.41,1.08-.62,2.24-.62,3.45s.22,2.31.64,3.38c.42,1.07,1.04,2.02,1.83,2.83.79.81,1.75,1.46,2.86,1.93,1.11.47,2.37.71,3.73.71,1.9,0,3.57-.43,4.96-1.27,1.39-.84,2.42-1.94,3.06-3.26l.21-.44-3.95-1.1-.17.22c-.97,1.27-2.44,2-4.04,2-2.16,0-4.05-1.35-4.78-3.34h13.52l.08-.31c.05-.2.08-.43.09-.71.01-.26.02-.53.02-.8,0-.58-.05-1.14-.15-1.7M460.1,671.14c1.95,0,3.71,1.12,4.56,2.83h-9.12c.85-1.72,2.61-2.83,4.56-2.83"/>
      <path class="cls-6" d="M430.27,674.46c-.1-.56-.25-1.11-.45-1.64-.4-1.07-1-2.02-1.78-2.83-.78-.81-1.73-1.46-2.83-1.94-1.1-.48-2.37-.72-3.75-.72s-2.66.24-3.78.72c-1.12.48-2.09,1.14-2.88,1.96-.79.82-1.4,1.78-1.81,2.86-.41,1.08-.62,2.24-.62,3.45s.22,2.31.64,3.38c.43,1.07,1.04,2.02,1.83,2.83.79.81,1.75,1.46,2.86,1.93,1.11.47,2.37.71,3.73.71,1.91,0,3.58-.43,4.96-1.27,1.39-.84,2.42-1.94,3.06-3.26l.21-.44-3.95-1.1-.17.22c-.97,1.27-2.44,2-4.04,2-2.16,0-4.05-1.35-4.78-3.34h13.52l.08-.31c.05-.2.08-.43.09-.71.01-.26.02-.53.02-.8,0-.58-.05-1.14-.15-1.7M416.94,673.98c.85-1.72,2.61-2.83,4.56-2.83s3.71,1.12,4.56,2.83h-9.12Z"/>
      <polygon class="cls-6" points="395.37 680.77 395.37 680.77 395.37 680.77 395.37 680.77"/>
      <path class="cls-6" d="M395.31,681.31h0s0-.01,0-.01c0,0,0,0,.01.01"/>
      <polygon class="cls-6" points="395.37 680.88 395.37 680.88 395.37 680.88 395.37 680.88"/>
      <polygon class="cls-6" points="395.37 680.77 395.37 680.77 395.37 680.77 395.37 680.77"/>
      <polygon class="cls-6" points="395.37 680.77 395.37 680.77 395.37 680.77 395.37 680.77"/>
      <path class="cls-6" d="M395.37,680.77h0s0,0,0,0h0ZM395.37,680.88h0s0,0,0,0h0ZM395.29,681.29v.02s.01,0,.01,0c0,0,0,0-.01-.01"/>
      <path class="cls-6" d="M406.01,671.16l-3.48-1.45c-1.82-.74-3.54-1.44-3.54-3.24,0-1.68,1.51-2.77,3.86-2.77.67,0,1.32.08,1.93.25l.05.03h.03c.06.02.11.04.16.06h.02s.03.02.05.03l.14.06h0s.04.02.06.03c.03.01.06.03.1.05.1.04.19.09.27.14l.15.09s.06.04.1.06c.05.03.1.06.14.09.03.02.06.04.1.07.16.11.31.23.44.35.2.18.4.39.58.61l.18.22.26-.09,3.69-.99-.22-.44c-.64-1.28-1.67-2.34-3.07-3.15-1.03-.6-2.22-.98-3.53-1.14-.55-.1-1.11-.16-1.65-.16-2.26,0-4.33.67-5.83,1.89-1.53,1.25-2.37,2.98-2.37,4.88,0,2.95,1.72,5.09,5.25,6.54l3.46,1.47c2.11.89,3.63,1.53,3.63,3.51s-1.69,3.15-4.4,3.15c-.21,0-.41,0-.6-.01-.5-.04-.99-.16-1.46-.34l-.07-.03s-.04-.02-.06-.03l-.08-.04h0s-.04-.02-.06-.03h-.02s-.05-.03-.08-.05c-.09-.04-.17-.09-.27-.14-.02,0-.03-.02-.05-.03-.02-.01-.04-.02-.06-.04h-.02s-.07-.06-.11-.08c-.05-.03-.09-.06-.14-.09-.03-.02-.06-.04-.09-.06h-.01c-.16-.12-.3-.24-.44-.37-.2-.19-.4-.4-.58-.62l-.18-.22-.26.09-3.69,1,.22.44c.15.3.32.6.52.88l.06.1.09.11c.61.82,1.42,1.53,2.4,2.11.77.46,1.63.79,2.56.99l.04.02h.04c.73.19,1.5.28,2.37.28,2.58,0,4.79-.72,6.4-2.07,1.56-1.31,2.42-3.14,2.42-5.14,0-4.02-2.7-5.68-5.34-6.77M395.3,681.31v-.02s0,0,0,.01h0ZM395.37,680.88h0s0,0,0,0h0ZM395.37,680.77h0s0,0,0,0h0Z"/>
      <polygon class="cls-6" points="483.26 685.24 478.7 685.24 474.88 679.48 471.05 685.24 466.45 685.24 472.61 676.44 466.26 667.4 470.85 667.4 483.26 685.24"/>
      <path class="cls-6" d="M445.22,659.72v8.96c-1.43-.97-3.08-1.47-4.82-1.47-4.85,0-8.8,4.04-8.8,9.02s3.95,9.02,8.8,9.02c1.74,0,3.39-.51,4.82-1.47v1.4h4.38v-25.45h-4.38ZM440.4,671.27c2.66,0,4.82,2.22,4.82,4.96s-2.16,4.96-4.82,4.96-4.83-2.22-4.83-4.96,2.16-4.96,4.83-4.96"/>
      <path class="cls-5" d="M482.03,659.98c-4.47,0-8.09,3.62-8.09,8.09,0,1.84.61,3.53,1.64,4.88l3.85-5.79h4.3l-5.6,7.99c1.15.63,2.48.99,3.89.99,4.47,0,8.09-3.62,8.09-8.09s-3.62-8.09-8.09-8.09"/>
    </g>
    <g>
      <text class="cls-14" transform="translate(500.36 684.71)"><tspan x="0" y="0">Member</tspan></text>
      <line class="cls-15" x1="496.79" y1="655.56" x2="496.79" y2="689.41"/>
    </g>
  </g>
</svg>