<svg width="16" height="12" viewBox="0 0 16 12" fill="none" xmlns="http://www.w3.org/2000/svg">
<path d="M8.23998 11.77C6.48998 11.77 4.74996 11.77 3.00996 11.77C2.72856 11.8164 2.44018 11.7952 2.16856 11.7082C1.89695 11.6212 1.64989 11.471 1.44774 11.2698C1.24559 11.0686 1.09413 10.8223 1.00585 10.5511C0.917565 10.2799 0.895001 9.99162 0.939988 9.70999C0.939988 7.34999 0.939988 4.98001 0.939988 2.63001C0.939988 2.09957 1.1507 1.59087 1.52577 1.21579C1.90085 0.84072 2.40956 0.63 2.93999 0.63C6.50999 0.69 10.08 0.63 13.64 0.63C13.912 0.589503 14.1897 0.6133 14.4508 0.699488C14.7119 0.785676 14.9492 0.931854 15.1437 1.1263C15.3381 1.32075 15.4843 1.55805 15.5705 1.81919C15.6567 2.08032 15.6805 2.35802 15.64 2.63001C15.64 5.02334 15.64 7.41 15.64 9.79C15.6762 10.0612 15.6494 10.3371 15.5617 10.5962C15.474 10.8554 15.3278 11.0909 15.1343 11.2843C14.9408 11.4778 14.7054 11.624 14.4462 11.7117C14.1871 11.7994 13.9112 11.8262 13.64 11.79L8.23998 11.77ZM8.23998 10.95H13.38C14.38 10.95 14.74 10.64 14.75 9.63001V2.72C14.75 1.79 14.41 1.45 13.5 1.45H2.96999C2.05999 1.45 1.71999 1.79 1.71999 2.72C1.71999 5.02 1.71999 7.32001 1.71999 9.63001C1.71999 10.63 2.04996 10.94 3.00996 10.94L8.23998 10.95Z" fill="#2F3A46"/>
<path d="M10.16 6.09999L13.47 9.25C13.71 9.49 14.04 9.71 13.73 10.12C13.31 10.36 13.09 10.04 12.84 9.81L9.54999 6.69L8.25 7.75999L6.95999 6.75999C5.81999 7.80999 4.70999 8.85 3.57999 9.87C3.35559 10.0406 3.11025 10.1817 2.84998 10.29C2.48998 9.74999 2.75999 9.50999 3.01999 9.28999L6.32999 6.19L2.53998 2.77L2.89999 2.05C4.76999 3.58 6.43999 5.19 8.23999 6.75L10.88 4.38C11.56 3.77 12.23 3.14999 12.93 2.56999C13.1501 2.41724 13.3887 2.29293 13.64 2.2C14 2.74 13.7 2.98 13.42 3.2L10.16 6.09999Z" fill="#2F3A46"/>
</svg>
