<svg width="12" height="14" viewBox="0 0 12 14" fill="none" xmlns="http://www.w3.org/2000/svg">
<path d="M4.83002 0.449997H7.39001C7.68952 0.487253 7.96429 0.635096 8.1604 0.86451C8.35651 1.09392 8.4598 1.38834 8.45001 1.68999V8.62C8.45001 8.62 8.45001 8.69 8.51001 8.7C9.00261 8.7556 9.46831 8.95358 9.85016 9.26971C10.232 9.58585 10.5134 10.0064 10.66 10.48C10.87 11.09 11.06 11.71 11.25 12.33C11.2549 12.3598 11.2549 12.3902 11.25 12.42C11.25 12.7604 11.1154 13.087 10.8757 13.3287C10.6359 13.5703 10.3104 13.7074 9.96997 13.71H2.23999C1.94822 13.7089 1.66531 13.6097 1.43677 13.4283C1.20822 13.2469 1.04731 12.9939 0.97998 12.71C0.984643 12.6501 0.984643 12.5899 0.97998 12.53V12.35C0.985501 12.327 0.985501 12.303 0.97998 12.28C1.17998 11.67 1.36001 11.06 1.57001 10.46C1.71549 9.99314 1.99314 9.57844 2.36938 9.26608C2.74563 8.95373 3.20434 8.7571 3.69 8.7C3.75 8.7 3.77002 8.7 3.77002 8.61V1.61C3.77114 1.33775 3.86327 1.07369 4.0318 0.859856C4.20033 0.646026 4.43556 0.494715 4.70001 0.43L4.83002 0.449997ZM7.96997 11.24V6.67C7.96997 5.01 7.96997 3.35 7.96997 1.67C7.97567 1.57218 7.9608 1.47426 7.92627 1.38257C7.89173 1.29088 7.83834 1.20746 7.76953 1.13771C7.70072 1.06796 7.61801 1.01343 7.52679 0.977646C7.43558 0.941866 7.33787 0.925635 7.23999 0.93H5C4.9013 0.924179 4.8025 0.939327 4.71008 0.974457C4.61766 1.00959 4.53372 1.0639 4.46381 1.13381C4.39389 1.20372 4.33957 1.28765 4.30444 1.38007C4.26931 1.47248 4.25419 1.5713 4.26001 1.67V11.21L7.96997 11.24ZM8.47998 11.24L8.95001 10.91C8.96825 10.8948 8.98945 10.8836 9.01227 10.8772C9.03509 10.8707 9.05903 10.869 9.08252 10.8724C9.10601 10.8757 9.12849 10.8839 9.14862 10.8964C9.16875 10.909 9.18608 10.9256 9.1994 10.9452C9.21272 10.9649 9.22179 10.9871 9.22601 11.0104C9.23024 11.0338 9.22953 11.0577 9.22394 11.0808C9.21834 11.1038 9.208 11.1255 9.19354 11.1443C9.17909 11.1631 9.16085 11.1787 9.14001 11.19L8.41998 11.68C8.38433 11.6922 8.34565 11.6922 8.31 11.68H3.94C3.89766 11.6931 3.85234 11.6931 3.81 11.68L3.08997 11.19C3.06831 11.1788 3.04934 11.163 3.0343 11.1438C3.01927 11.1246 3.00856 11.1024 3.00287 11.0787C2.99718 11.055 2.99666 11.0303 3.00134 11.0064C3.00602 10.9825 3.01576 10.9598 3.02997 10.94C3.04589 10.9227 3.06522 10.9089 3.08673 10.8995C3.10825 10.8901 3.13148 10.8852 3.15497 10.8852C3.17846 10.8852 3.20169 10.8901 3.22321 10.8995C3.24472 10.9089 3.26405 10.9227 3.27997 10.94L3.69 11.23H3.75V9.23H3.69C3.30336 9.28595 2.94076 9.45121 2.6449 9.70633C2.34903 9.96145 2.13224 10.2958 2.02002 10.67C1.85002 11.15 1.70999 11.67 1.54999 12.11C1.55432 12.1331 1.55432 12.1569 1.54999 12.18H10.71C10.55 11.67 10.41 11.18 10.23 10.66C10.1219 10.3178 9.92381 10.011 9.65637 9.77168C9.38894 9.53239 9.06203 9.36947 8.70996 9.3H8.51001L8.47998 11.24ZM1.47998 12.66C1.54487 12.8034 1.65064 12.9246 1.78406 13.0082C1.91747 13.0918 2.07259 13.1342 2.22998 13.13H9.95001C10.1065 13.1362 10.2612 13.0946 10.3934 13.0106C10.5257 12.9266 10.6291 12.8043 10.69 12.66V12.58L1.47998 12.66Z" fill="#2F3A46"/>
<path d="M6.10999 4.59H4.75C4.6 4.59 4.53998 4.53 4.53998 4.38V3.17C4.53998 3.03 4.59999 2.97 4.73999 2.97H7.48999C7.62999 2.97 7.69 3.03 7.69 3.17V4.41C7.69322 4.43703 7.69025 4.46445 7.68134 4.49018C7.67242 4.51591 7.6578 4.53929 7.63855 4.55854C7.6193 4.57779 7.59592 4.59243 7.57019 4.60134C7.54446 4.61026 7.51703 4.61322 7.48999 4.61L6.10999 4.59ZM4.88 3.29V4.24H7.34998V3.29H4.88Z" fill="#2F3A46"/>
<path d="M6.12 5.46C6.21061 5.46 6.30032 5.47784 6.38403 5.51252C6.46775 5.5472 6.54384 5.59802 6.60791 5.66209C6.67198 5.72617 6.72277 5.80223 6.75745 5.88595C6.79212 5.96966 6.81 6.05939 6.81 6.15C6.81 6.24061 6.79212 6.33033 6.75745 6.41405C6.72277 6.49776 6.67198 6.57383 6.60791 6.6379C6.54384 6.70197 6.46775 6.7528 6.38403 6.78748C6.30032 6.82215 6.21061 6.84 6.12 6.84C6.02938 6.84 5.93967 6.82215 5.85596 6.78748C5.77224 6.7528 5.69615 6.70197 5.63208 6.6379C5.56801 6.57383 5.51716 6.49776 5.48248 6.41405C5.44781 6.33033 5.42999 6.24061 5.42999 6.15C5.43503 5.96859 5.50937 5.796 5.6377 5.66768C5.76602 5.53936 5.93859 5.46504 6.12 5.46ZM6.12 6.46C6.21547 6.46 6.30706 6.42207 6.37457 6.35455C6.44209 6.28704 6.47998 6.19548 6.47998 6.1C6.48 6.05318 6.47066 6.00684 6.45245 5.96371C6.43424 5.92058 6.40753 5.88154 6.37396 5.84891C6.3404 5.81627 6.30064 5.7907 6.25702 5.77371C6.21339 5.75672 6.16679 5.74866 6.12 5.75C6.03607 5.76414 5.95987 5.80755 5.90491 5.87254C5.84995 5.93752 5.81976 6.01988 5.81976 6.105C5.81976 6.19011 5.84995 6.27247 5.90491 6.33746C5.95987 6.40244 6.03607 6.44586 6.12 6.46Z" fill="#2F3A46"/>
<path d="M6.10999 2.11H5.66998C5.57098 2.09459 5.48076 2.04429 5.41559 1.96819C5.35042 1.89208 5.31458 1.79519 5.31458 1.695C5.31458 1.59481 5.35042 1.49792 5.41559 1.42181C5.48076 1.34571 5.57098 1.29541 5.66998 1.28H6.57001C6.66901 1.29541 6.75923 1.34571 6.8244 1.42181C6.88957 1.49792 6.92535 1.59481 6.92535 1.695C6.92535 1.79519 6.88957 1.89208 6.8244 1.96819C6.75923 2.04429 6.66901 2.09459 6.57001 2.11H6.10999ZM6.10999 1.78H6.52997C6.58997 1.78 6.62 1.78 6.62 1.7C6.62 1.62 6.61997 1.61 6.52997 1.61H5.67999C5.61999 1.61 5.58997 1.60999 5.58997 1.68999C5.58997 1.76999 5.58999 1.78 5.67999 1.78H6.10999Z" fill="#2F3A46"/>
<path d="M7.24001 5.59999C7.31932 5.77427 7.36038 5.96352 7.36038 6.155C7.36038 6.34647 7.31932 6.53572 7.24001 6.71H7.50002C7.61002 6.71 7.69003 6.77999 7.69003 6.87999C7.68882 6.90456 7.68259 6.92862 7.67172 6.95069C7.66085 6.97275 7.64554 6.99235 7.62679 7.00828C7.60805 7.02421 7.58624 7.03613 7.56271 7.04331C7.53918 7.05048 7.51446 7.05275 7.49001 7.04999H6.95004C6.91477 7.05436 6.87901 7.04756 6.8478 7.03056C6.8166 7.01355 6.79148 6.98719 6.77603 6.95519C6.76057 6.92318 6.75559 6.88714 6.76168 6.85213C6.76778 6.81712 6.78467 6.78489 6.81002 6.75999C6.94463 6.58513 7.0176 6.37067 7.0176 6.15C7.0176 5.92933 6.94463 5.71486 6.81002 5.54C6.79335 5.51111 6.78457 5.47835 6.78457 5.445C6.78457 5.41164 6.79335 5.37888 6.81002 5.34999C6.82444 5.31772 6.84858 5.29075 6.87905 5.27282C6.90952 5.2549 6.94479 5.24692 6.98 5.25H7.55001C7.5951 5.25 7.63837 5.2679 7.67025 5.29979C7.70213 5.33167 7.71999 5.37491 7.71999 5.41999C7.71999 5.46508 7.70213 5.50832 7.67025 5.5402C7.63837 5.57208 7.5951 5.58999 7.55001 5.58999H7.24001V5.59999Z" fill="#2F3A46"/>
<path d="M4.95002 6.71C4.87112 6.53385 4.83033 6.34301 4.83033 6.15C4.83033 5.95699 4.87112 5.76615 4.95002 5.59H4.69001C4.66606 5.59283 4.64177 5.59054 4.61878 5.58328C4.59579 5.57602 4.57462 5.56394 4.55665 5.54787C4.53868 5.53179 4.5243 5.51207 4.51453 5.49003C4.50477 5.46798 4.49984 5.44411 4.5 5.42C4.49984 5.39588 4.50477 5.37201 4.51453 5.34997C4.5243 5.32792 4.53868 5.30821 4.55665 5.29213C4.57462 5.27605 4.59579 5.26398 4.61878 5.25671C4.64177 5.24945 4.66606 5.24716 4.69001 5.25H5.24C5.27499 5.24831 5.30971 5.25688 5.33991 5.27464C5.37011 5.2924 5.39445 5.31859 5.40998 5.35C5.42665 5.37888 5.43543 5.41165 5.43543 5.445C5.43543 5.47835 5.42665 5.51112 5.40998 5.54C5.26023 5.70987 5.17762 5.92854 5.17762 6.155C5.17762 6.38145 5.26023 6.60012 5.40998 6.77C5.42682 6.79699 5.4358 6.82818 5.4358 6.86C5.4358 6.89182 5.42682 6.923 5.40998 6.95C5.39735 6.98147 5.37508 7.00812 5.34632 7.02609C5.31756 7.04407 5.28383 7.05243 5.25 7.04999H4.66999C4.64684 7.05136 4.62367 7.04798 4.60187 7.04005C4.58008 7.03212 4.56014 7.01981 4.54328 7.00388C4.52642 6.98796 4.51301 6.96875 4.50385 6.94745C4.49469 6.92614 4.48995 6.90319 4.49 6.88C4.48982 6.85719 4.49453 6.83461 4.50379 6.81377C4.51305 6.79293 4.52666 6.77431 4.54371 6.75915C4.56075 6.744 4.58082 6.73267 4.60261 6.72592C4.62439 6.71917 4.64736 6.71715 4.66999 6.72L4.95002 6.71Z" fill="#2F3A46"/>
<path d="M4.98997 8.28H4.71995C4.69553 8.2833 4.67072 8.28092 4.64738 8.27304C4.62403 8.26516 4.60279 8.252 4.58537 8.23458C4.56795 8.21716 4.55479 8.19595 4.54691 8.17261C4.53904 8.14926 4.53665 8.12441 4.53996 8.1V7.89C4.53859 7.86816 4.54175 7.84627 4.54917 7.82569C4.5566 7.80511 4.56817 7.78627 4.58317 7.77034C4.59817 7.75441 4.61624 7.74172 4.63633 7.73306C4.65642 7.7244 4.67811 7.71996 4.69999 7.72H5.28996C5.31184 7.71996 5.33352 7.7244 5.35362 7.73306C5.37371 7.74172 5.39178 7.75441 5.40678 7.77034C5.42177 7.78627 5.43335 7.80511 5.44077 7.82569C5.4482 7.84627 5.45136 7.86816 5.44999 7.89V8.11C5.45146 8.13271 5.44807 8.15546 5.44004 8.17675C5.43202 8.19804 5.41951 8.21738 5.40342 8.23347C5.38733 8.24956 5.36801 8.26203 5.34672 8.27006C5.32543 8.27808 5.30265 8.28147 5.27995 8.28H4.98997Z" fill="#2F3A46"/>
<path d="M4.99002 10.09H4.70999C4.68688 10.0934 4.66336 10.0913 4.6412 10.0839C4.61905 10.0766 4.59893 10.0641 4.58242 10.0476C4.56592 10.0311 4.55347 10.011 4.54611 9.98882C4.53875 9.96667 4.53665 9.9431 4.54001 9.92V9.71C4.53865 9.68767 4.54172 9.66529 4.54904 9.64414C4.55635 9.623 4.5678 9.6035 4.58267 9.58678C4.59753 9.57005 4.61551 9.55644 4.63565 9.54669C4.65579 9.53695 4.6777 9.53127 4.70004 9.53H5.29001C5.33334 9.53255 5.37409 9.55158 5.40384 9.58319C5.43359 9.6148 5.45011 9.65659 5.45004 9.7C5.4601 9.77633 5.4601 9.85366 5.45004 9.93C5.45008 9.95188 5.44564 9.97354 5.43698 9.99363C5.42832 10.0137 5.41562 10.0318 5.39969 10.0468C5.38375 10.0618 5.36491 10.0734 5.34433 10.0808C5.32375 10.0882 5.30183 10.0914 5.28 10.09H4.99002Z" fill="#2F3A46"/>
<path d="M7.23997 8.28H6.96995C6.94553 8.2833 6.92072 8.28092 6.89738 8.27304C6.87403 8.26516 6.85279 8.252 6.83537 8.23458C6.81795 8.21716 6.80479 8.19595 6.79691 8.17261C6.78904 8.14926 6.78665 8.12441 6.78996 8.1V7.89C6.78849 7.86729 6.79188 7.84453 6.79991 7.82324C6.80793 7.80195 6.82044 7.78261 6.83653 7.76652C6.85262 7.75043 6.87194 7.73796 6.89323 7.72994C6.91452 7.72192 6.93723 7.71853 6.95994 7.72H7.52995C7.55265 7.71853 7.57543 7.72192 7.59672 7.72994C7.61801 7.73796 7.63733 7.75043 7.65342 7.76652C7.66951 7.78261 7.68202 7.80195 7.69004 7.82324C7.69807 7.84453 7.70146 7.86729 7.69999 7.89C7.70498 7.96325 7.70498 8.03675 7.69999 8.11C7.70146 8.1327 7.69807 8.15546 7.69004 8.17675C7.68202 8.19804 7.66951 8.21738 7.65342 8.23347C7.63733 8.24955 7.61801 8.26203 7.59672 8.27006C7.57543 8.27808 7.55265 8.28147 7.52995 8.28H7.23997Z" fill="#2F3A46"/>
<path d="M7.23996 10.08C7.15024 10.09 7.05966 10.09 6.96994 10.08C6.94645 10.083 6.92258 10.0808 6.90006 10.0735C6.87753 10.0661 6.85691 10.0539 6.83969 10.0376C6.82247 10.0214 6.80911 10.0015 6.80051 9.9794C6.79191 9.95733 6.78827 9.93363 6.78995 9.91V9.69C6.78995 9.64491 6.80787 9.60168 6.83975 9.56979C6.87163 9.53791 6.91484 9.52 6.95993 9.52H7.53995C7.56183 9.51995 7.58351 9.5244 7.60361 9.53306C7.6237 9.54172 7.64177 9.55441 7.65677 9.57034C7.67177 9.58628 7.68334 9.60511 7.69077 9.62569C7.69819 9.64628 7.70135 9.66816 7.69998 9.69C7.70497 9.76658 7.70497 9.84341 7.69998 9.92C7.70003 9.94188 7.69558 9.96353 7.68692 9.98363C7.67826 10.0037 7.66556 10.0218 7.64963 10.0368C7.6337 10.0518 7.61485 10.0634 7.59427 10.0708C7.57369 10.0782 7.55178 10.0814 7.52994 10.08C7.43334 10.085 7.33656 10.085 7.23996 10.08Z" fill="#2F3A46"/>
<path d="M6.12002 10.08C6.02342 10.085 5.92665 10.085 5.83005 10.08C5.80734 10.0815 5.78456 10.0781 5.76327 10.0701C5.74198 10.062 5.72266 10.0496 5.70657 10.0335C5.69048 10.0174 5.67797 9.99805 5.66995 9.97675C5.66193 9.95546 5.65853 9.9327 5.66 9.91V9.69C5.65863 9.66816 5.66179 9.64628 5.66922 9.62569C5.67664 9.60511 5.68822 9.58628 5.70321 9.57034C5.71821 9.55441 5.73628 9.54172 5.75638 9.53306C5.77647 9.5244 5.79816 9.51995 5.82004 9.52H6.41C6.43188 9.51995 6.45357 9.5244 6.47366 9.53306C6.49376 9.54172 6.51183 9.55441 6.52682 9.57034C6.54182 9.58628 6.55339 9.60511 6.56082 9.62569C6.56825 9.64628 6.5714 9.66816 6.57004 9.69V9.91C6.57151 9.9327 6.56811 9.95546 6.56009 9.97675C6.55206 9.99805 6.53956 10.0174 6.52347 10.0335C6.50738 10.0496 6.48806 10.062 6.46676 10.0701C6.44547 10.0781 6.4227 10.0815 6.39999 10.08C6.30693 10.09 6.21309 10.09 6.12002 10.08Z" fill="#2F3A46"/>
<path d="M6.10996 8.28H5.83994C5.81553 8.2833 5.79072 8.28092 5.76737 8.27304C5.74403 8.26516 5.72278 8.252 5.70536 8.23458C5.68794 8.21716 5.67479 8.19595 5.66691 8.17261C5.65903 8.14926 5.65665 8.12441 5.65995 8.1V7.89C5.65858 7.86816 5.66174 7.84627 5.66917 7.82569C5.67659 7.80511 5.68817 7.78627 5.70316 7.77034C5.71816 7.75441 5.73623 7.74172 5.75633 7.73306C5.77642 7.7244 5.79811 7.71996 5.81999 7.72H6.40995C6.45239 7.72 6.4931 7.73686 6.52311 7.76686C6.55312 7.79687 6.56999 7.83756 6.56999 7.88V8.11C6.57146 8.13271 6.56806 8.15546 6.56004 8.17675C6.55201 8.19804 6.5395 8.21738 6.52342 8.23347C6.50733 8.24956 6.48801 8.26203 6.46671 8.27006C6.44542 8.27808 6.42265 8.28147 6.39994 8.28H6.10996Z" fill="#2F3A46"/>
<path d="M5.00003 9.17H4.70999C4.68636 9.17167 4.66266 9.16808 4.64059 9.15948C4.61852 9.15087 4.59863 9.13747 4.58236 9.12025C4.5661 9.10303 4.55386 9.08242 4.54654 9.05989C4.53921 9.03736 4.53698 9.01349 4.54 8.99V8.78C4.53853 8.75729 4.54193 8.73453 4.54995 8.71324C4.55798 8.69195 4.57049 8.67261 4.58657 8.65652C4.60266 8.64043 4.62198 8.62796 4.64328 8.61994C4.66457 8.61192 4.68728 8.60853 4.70999 8.61H5.24002C5.26272 8.60853 5.2855 8.61192 5.30679 8.61994C5.32808 8.62796 5.3474 8.64043 5.36349 8.65652C5.37958 8.67261 5.39203 8.69195 5.40005 8.71324C5.40807 8.73453 5.41147 8.75729 5.41 8.78C5.42006 8.85633 5.42006 8.93366 5.41 9.00999C5.41004 9.03187 5.4056 9.05354 5.39694 9.07363C5.38828 9.09372 5.37558 9.11183 5.35965 9.12682C5.34371 9.14182 5.32493 9.15338 5.30435 9.16081C5.28377 9.16824 5.26185 9.17136 5.24002 9.17H5.00003Z" fill="#2F3A46"/>
<path d="M7.24002 8.62H7.53C7.55363 8.61832 7.57738 8.62192 7.59945 8.63052C7.62153 8.63912 7.64136 8.65252 7.65762 8.66974C7.67389 8.68696 7.68612 8.70758 7.69345 8.73011C7.70078 8.75263 7.70306 8.7765 7.70004 8.8V9.01C7.70151 9.0327 7.69812 9.05546 7.69009 9.07675C7.68207 9.09805 7.66956 9.11738 7.65347 9.13347C7.63738 9.14956 7.61806 9.16203 7.59677 9.17005C7.57548 9.17808 7.5527 9.18147 7.53 9.18H6.95999C6.93728 9.18147 6.91457 9.17808 6.89328 9.17005C6.87199 9.16203 6.85267 9.14956 6.83658 9.13347C6.82049 9.11738 6.80798 9.09805 6.79996 9.07675C6.79193 9.05546 6.78854 9.0327 6.79001 9.01V8.79C6.78854 8.7673 6.79193 8.74454 6.79996 8.72325C6.80798 8.70196 6.82049 8.68262 6.83658 8.66653C6.85267 8.65044 6.87199 8.63797 6.89328 8.62995C6.91457 8.62192 6.93728 8.61853 6.95999 8.62H7.24002Z" fill="#2F3A46"/>
<path d="M6.11001 8.61999H6.39004C6.41406 8.61853 6.4381 8.62219 6.4606 8.63072C6.4831 8.63925 6.50352 8.65246 6.52054 8.66948C6.53755 8.68649 6.55076 8.70692 6.55929 8.72942C6.56782 8.75192 6.5715 8.77598 6.57004 8.79999V9.00999C6.57151 9.0327 6.56811 9.05546 6.56009 9.07675C6.55206 9.09804 6.53956 9.11738 6.52347 9.13347C6.50738 9.14956 6.48806 9.16203 6.46676 9.17005C6.44547 9.17807 6.4227 9.18147 6.39999 9.18H5.83005C5.80734 9.18147 5.78456 9.17807 5.76327 9.17005C5.74198 9.16203 5.72266 9.14956 5.70657 9.13347C5.69048 9.11738 5.67797 9.09804 5.66995 9.07675C5.66193 9.05546 5.65853 9.0327 5.66 9.00999V8.79C5.65853 8.76729 5.66193 8.74453 5.66995 8.72324C5.67797 8.70195 5.69048 8.68261 5.70657 8.66652C5.72266 8.65044 5.74198 8.63797 5.76327 8.62994C5.78456 8.62192 5.80734 8.61852 5.83005 8.61999H6.11001Z" fill="#2F3A46"/>
</svg>
