<svg width="14" height="15" viewBox="0 0 14 15" fill="none" xmlns="http://www.w3.org/2000/svg">
<path d="M4.63998 6.09C5.51429 7.675 6.83124 8.9711 8.42999 9.82C8.67999 9.52 8.89999 9.19 9.17999 8.91C9.2972 8.7658 9.44509 8.64954 9.61289 8.5697C9.78068 8.48985 9.96417 8.44842 10.15 8.44842C10.3358 8.44842 10.5193 8.48985 10.6871 8.5697C10.8549 8.64954 11.0028 8.7658 11.12 8.91C11.68 9.43 12.22 9.97 12.73 10.53C12.8555 10.6512 12.9553 10.7965 13.0235 10.9571C13.0917 11.1178 13.1268 11.2905 13.1268 11.465C13.1268 11.6395 13.0917 11.8122 13.0235 11.9729C12.9553 12.1335 12.8555 12.2788 12.73 12.4C12.3735 12.7932 11.9963 13.167 11.6 13.52C11.311 13.7708 10.9628 13.9437 10.5883 14.0225C10.2139 14.1012 9.82553 14.0832 9.45999 13.97C7.12673 13.3725 5.03267 12.0742 3.45999 10.25C2.23516 8.98775 1.31506 7.46224 0.76999 5.79C0.10999 3.57 0.769992 3 2.45999 1.58C2.66465 1.41983 2.92059 1.33962 3.18005 1.35434C3.43952 1.36906 3.68477 1.47771 3.87 1.66C4.5355 2.26384 5.16965 2.90134 5.76999 3.57C5.98434 3.7871 6.10452 4.07991 6.10452 4.385C6.10452 4.69009 5.98434 4.9829 5.76999 5.2C5.41255 5.5203 5.03512 5.81757 4.63998 6.09ZM3.09998 1.98C2.70998 2.34 2.41998 2.64 2.09998 2.89C1.73387 3.16037 1.47094 3.54751 1.35458 3.9875C1.23822 4.42749 1.27541 4.894 1.45999 5.31C2.03242 7.09568 3.01537 8.72236 4.32999 10.0596C5.64461 11.3968 7.25433 12.4072 9.03 13.01C10.55 13.56 11.64 13.01 12.39 11.39L10.15 9.11C9.74999 9.48 9.35 9.81 9 10.19C8.93263 10.2829 8.84754 10.3616 8.74963 10.4215C8.65173 10.4814 8.54294 10.5213 8.42954 10.5389C8.31613 10.5566 8.20038 10.5516 8.0889 10.5244C7.97742 10.4971 7.87243 10.448 7.78 10.38C6.26796 9.52424 5.0141 8.27729 4.14999 6.77C4.04026 6.50281 3.9598 6.22452 3.91 5.94L5.41998 4.36L3.09998 1.98Z" fill="#2F3A46"/>
<path d="M13.89 6.81L13.42 6.94C13.02 6.01 12.7 5.11 12.25 4.26C11.772 3.39703 11.0432 2.69959 10.16 2.26C9.32 1.82 8.41998 1.51 7.56998 1.15C7.56998 0.720003 7.76999 0.599997 8.10999 0.619997C10.75 0.839997 13.75 3.92 13.93 6.62C13.93 6.6 13.91 6.65 13.89 6.81Z" fill="#2F3A46"/>
<path d="M7.50998 3.68999V3.04C8.32578 3.01346 9.12294 3.28748 9.75 3.81C10.5933 4.42891 11.186 5.33041 11.42 6.35C11.5 6.68 11.51 6.94 11.03 7.08C10.94 6.99 10.76 6.88 10.72 6.74C10.5722 5.95929 10.1827 5.24478 9.60672 4.69747C9.0307 4.15016 8.29722 3.79772 7.50998 3.68999Z" fill="#2F3A46"/>
</svg>
