<svg width="15" height="15" viewBox="0 0 15 15" fill="none" xmlns="http://www.w3.org/2000/svg">
<path d="M14.24 0.319994C14.24 0.959994 9.4 12.53 8.4 14.32C7.96 14.54 7.78999 14.24 7.60999 13.93C6.84999 12.63 6.09 11.31 5.3 10.03C5.09805 9.70488 4.82006 9.43376 4.49 9.24001C3.23 8.49001 1.95 7.78001 0.680001 7.05001C0.390001 6.89001 0.0299864 6.75 0.289986 6.17L13.79 0.300005C13.9 0.220005 14.06 0.289994 14.24 0.319994ZM12.59 2.66001L5.88999 9.34999L8.08 13.05L12.59 2.66001ZM11.59 2.08L1.44001 6.53L5.19999 8.66001L11.59 2.08Z" fill="#2F3A46"/>
</svg>
