<svg width="24" height="24" viewBox="0 0 24 24" fill="none" xmlns="http://www.w3.org/2000/svg">
<path d="M11.61 23.74C9.32757 23.72 7.10248 23.023 5.21651 21.7374C3.33055 20.4518 1.86857 18.6353 1.01583 16.5181C0.163087 14.4009 -0.0420595 12.0782 0.42635 9.84427C0.894759 7.61037 2.01565 5.56575 3.64705 3.96941C5.27845 2.37308 7.34695 1.29686 9.5905 0.877097C11.8341 0.457334 14.1517 0.712917 16.2499 1.61146C18.3481 2.51 20.1324 4.01107 21.3768 5.92452C22.6211 7.83797 23.2696 10.0777 23.24 12.36C23.203 15.4101 21.9579 18.3211 19.7777 20.4544C17.5975 22.5878 14.6602 23.7694 11.61 23.74ZM10.53 10.33C9.90117 10.218 9.256 10.237 8.63488 10.3859C8.01375 10.5347 7.43004 10.8102 6.92031 11.1951C6.41058 11.58 5.98583 12.066 5.6726 12.6226C5.35937 13.1792 5.1644 13.7945 5.09996 14.43C4.97125 15.6986 5.35045 16.9664 6.1545 17.956C6.95855 18.9456 8.12193 19.5763 9.38997 19.71C10.0186 19.7832 10.6555 19.7287 11.2626 19.5498C11.8696 19.3708 12.4343 19.0711 12.9227 18.6686C13.4111 18.2661 13.8132 17.7692 14.1048 17.2075C14.3965 16.6458 14.5717 16.031 14.62 15.4C14.75 13.68 14.62 11.94 14.62 10.16L18.1 11.07V8.33001C17.198 8.19229 16.3622 7.77443 15.7107 7.13555C15.0593 6.49667 14.6252 5.66914 14.47 4.77001H11.97C11.97 7.93001 11.97 10.99 11.97 14.06C11.995 14.6041 11.9273 15.1485 11.77 15.67C11.6387 16.1268 11.341 16.5178 10.9356 16.7659C10.5301 17.0139 10.0465 17.101 9.57998 17.01C9.10731 16.9687 8.66617 16.7556 8.34002 16.411C8.01386 16.0664 7.8253 15.6142 7.80999 15.14C7.76578 14.8946 7.77135 14.6429 7.82637 14.3997C7.8814 14.1566 7.98474 13.927 8.13027 13.7245C8.27579 13.5221 8.46054 13.351 8.67351 13.2214C8.88648 13.0917 9.12332 13.0063 9.36998 12.97L10.52 12.77L10.53 10.33Z" fill="#0E4E8C"/>
</svg>
