<?xml version="1.0" encoding="UTF-8"?>
<svg id="Layer_1" data-name="Layer 1" xmlns="http://www.w3.org/2000/svg" version="1.1" viewBox="0 0 1000 1000">
  <defs>
    <style>
      .cls-1 {
        fill: #0e4e8c;
        stroke-width: 0px;
      }
    </style>
  </defs>
  <path class="cls-1" d="M646.88,542.65c-23.96-.21-42.94-19.38-42.66-43.09.28-23.51,19.57-42.44,43.01-42.21,24.06.24,42.7,19.15,42.57,43.17-.13,23.51-19.31,42.33-42.92,42.13ZM642.89,493.01c-10.48-1.34-19.11,5.39-20.11,15.2-.99,9.77,6.18,18.58,15.9,19.53,9.87.97,18.62-6,19.34-15.96.46-6.38.09-12.82.09-19.38,4.59,1.21,8.53,2.24,12.84,3.38v-10.15c-7.65-1.43-11.74-6.28-13.43-13.19h-9.24c0,11.71.03,23.04-.03,34.37-.01,2-.07,4.12-.74,5.95-1.32,3.64-4.22,5.56-8.1,4.98-3.79-.56-6.3-3.06-6.58-6.93-.29-4.06,1.45-7.1,5.8-8.01,1.35-.28,2.72-.49,4.26-.76v-9.03Z"/>
  <path class="cls-1" d="M499.42,542.52c-24.32-.37-42.68-19.53-42.21-44.04.45-23.02,19.82-41.45,43.27-41.17,23.84.29,42.79,19.75,42.31,43.46-.48,23.51-19.81,42.11-43.37,41.75ZM525.73,523.42c0-8.76.67-16.91-.18-24.89-.93-8.67-9.43-12.62-17.37-8.89-1.42.67-2.72,1.6-4.05,2.39-2.9-3.28-3.86-3.44-10.78-1.85v33.03h10.74c0-6.66-.18-12.92.07-19.16.15-3.72,2.32-6.13,6.31-5.9,3.65.21,4.46,3.01,4.66,6.04.14,2.02.15,4.06.16,6.09.02,4.34,0,8.69,0,13.15h10.45ZM476.08,489.65v33.47h10.15v-33.47h-10.15ZM487.59,479.13c0-3.64-2.84-6.54-6.16-6.53-3.85,0-5.94,2.32-6.45,5.85-.48,3.3,2.99,6.67,6.44,6.46,3.8-.22,5.64-2.58,6.17-5.78Z"/>
  <path class="cls-1" d="M371.96,484.77v-10.38c-7.73-1.12-15.22-2.37-21.39,3.69-5.87,5.76-4.26,13.54-4.86,21.03-3.39.26-6.54.49-10.15.77v12.25c3.4.19,6.56.37,10.04.57v28.64c-18.72-1-35.58-20.88-35.48-41.52.12-22.33,18-41.45,39.69-42.45,23.81-1.09,43.55,15.23,45.82,37.89,2.26,22.56-13.02,42.99-35.15,46.42v-29.03c3.16-.17,6.13-.33,9.48-.51.6-3.98,1.16-7.74,1.85-12.31-3.96-.18-7.49-.34-10.95-.49-2.44-11.12-1.38-12.52,11.11-14.57Z"/>
  <g>
    <path class="cls-1" d="M793.84,542.57c-23.88-.06-42.8-19.19-42.63-43.1.17-23.45,19.39-42.31,42.98-42.18,23.66.13,42.6,19.03,42.64,42.54.04,23.85-19.03,42.8-42.99,42.74ZM794.56,480.23s0-.01,0-.02c-6.3,0-12.61-.3-18.88.08-6.81.41-9.27,2.59-9.7,9.27-.47,7.25-.11,14.56.06,21.84.11,4.87,3.19,7.81,7.67,7.91,13.59.31,27.19.29,40.78-.04,4.56-.11,7.45-3.21,7.56-8.01.17-7.28.48-14.59.01-21.84-.42-6.37-2.91-8.69-9.22-9.1-6.07-.4-12.18-.09-18.27-.09Z"/>
    <path class="cls-1" d="M789.25,492.2c4.73,2.72,8.72,5.02,13.38,7.71-4.55,2.68-8.57,5.06-13.38,7.89v-15.6Z"/>
  </g>
  <g>
    <path class="cls-1" d="M205.87,457.27c24.01-.01,42.99,18.92,42.93,42.82-.06,23.4-19.3,42.63-42.69,42.64-23.73.02-43.05-19.33-42.94-43.01.11-23.6,19.06-42.44,42.7-42.45ZM205.97,526.96s0-.01,0-.02c4.06,0,8.14.19,12.19-.04,8.46-.48,14.11-5.7,14.57-14.21.46-8.5.44-17.06.02-25.57-.4-7.99-4.8-13.14-12.79-13.82-9.26-.79-18.68-.78-27.94-.03-7.91.64-12.41,5.87-12.81,13.83-.43,8.5-.44,17.07.02,25.57.48,8.74,6.31,13.91,15.15,14.26,3.86.15,7.72.03,11.58.03Z"/>
    <path class="cls-1" d="M206.02,478.2c3.85,0,7.71-.17,11.55.04,5.97.32,9.42,2.83,9.83,8.68.6,8.65.45,17.39.06,26.06-.23,5.06-3.52,8.24-8.74,8.36-8.49.2-17,.19-25.49,0-4.92-.11-8.31-3.01-8.53-7.83-.42-9.07-.46-18.18,0-27.25.27-5.15,4.17-7.71,9.17-8.01,4.04-.24,8.1-.05,12.15-.05ZM206.24,513.9c7.64-.11,13.92-6.4,13.93-13.95.01-7.6-6.84-14.31-14.45-14.16-7.4.14-13.88,6.68-13.94,14.07-.06,7.78,6.51,14.16,14.45,14.04ZM225.25,485.54c-2.23-1.55-3.5-3.09-4.86-3.18-1.03-.06-3.18,1.93-3.04,2.68.26,1.41,1.69,3.44,2.86,3.6,1.22.17,2.7-1.56,5.04-3.11Z"/>
    <path class="cls-1" d="M206.5,491.28c5.13.26,8.53,4.13,8.17,9.29-.31,4.54-4.42,8.34-8.89,8.22-4.74-.13-8.67-4.4-8.5-9.24.18-5.09,4.02-8.54,9.22-8.27Z"/>
  </g>
</svg>