<svg width="12" height="12" viewBox="0 0 12 12" fill="none" xmlns="http://www.w3.org/2000/svg">
<path d="M6.16999 11.78C5.41319 11.8011 4.65995 11.669 3.95545 11.3917C3.25096 11.1145 2.60973 10.6977 2.07029 10.1665C1.53085 9.63531 1.10432 9.00059 0.816263 8.30044C0.528209 7.60029 0.384584 6.84915 0.394022 6.09211C0.40346 5.33508 0.565746 4.58775 0.871164 3.895C1.17658 3.20225 1.61882 2.57834 2.17134 2.06074C2.72385 1.54314 3.37528 1.14252 4.08647 0.882915C4.79766 0.623305 5.55397 0.510066 6.31001 0.549998C7.7593 0.626546 9.12278 1.26079 10.115 2.31994C11.1072 3.3791 11.6512 4.78103 11.6331 6.23223C11.615 7.68343 11.0363 9.07136 10.018 10.1054C8.99964 11.1395 7.62074 11.7396 6.16999 11.78ZM1.24 4.5C0.865076 5.57834 0.865076 6.75166 1.24 7.83H11.15C11.5611 6.75806 11.5611 5.57194 11.15 4.5H1.24ZM4.83 9.69999H7.55L8.16001 8.25H4.24L4.83 9.69999ZM7.53001 2.63H4.84999L4.24 4.06999H8.16001L7.53001 2.63ZM4.4 2.63H2.24L1.31999 4.08H3.81001L4.4 2.63ZM2.24 9.69H4.38001L3.81001 8.25999H1.31001L2.24 9.69ZM7.97001 9.69H10.1L11.03 8.24H8.53999L7.97001 9.69ZM8.53999 4.08H11.05L10.05 2.63H7.93L8.53999 4.08ZM6.74 11.38C7.80407 11.2533 8.80473 10.807 9.60999 10.1H7.74L6.74 11.38ZM5.59999 11.38L4.59999 10.13H2.72001C3.54602 10.83 4.56336 11.2655 5.63999 11.38H5.59999ZM4.59999 2.20999L5.59999 0.959987C4.54869 1.0908 3.55833 1.52518 2.75001 2.20999H4.59999ZM9.46 2.20999C8.72158 1.49811 7.76168 1.06052 6.74 0.969996L7.74 2.20999H9.46ZM7.24 10.11H5.03999L6.15 11.39L7.24 10.11ZM5.24 2.16999L5.3 2.25999H7.35999L6.24 0.949992L5.24 2.16999Z" fill="#2F3A46"/>
<path d="M9.57999 6.03C9.34999 6.45 9.38 6.97 9.06 7.31H8.88998L8.28 5.09L8.64999 5.03L9.01999 6.36L9.50998 4.92C9.93998 5.36 9.88999 5.86999 10.15 6.31999L10.51 5.06H10.9L10.24 7.37C9.71999 7.01 9.87999 6.42 9.57999 6.03Z" fill="#2F3A46"/>
<path d="M5.5 7.27L4.91 5.11L5.26999 5.02L5.63998 6.31999C5.90998 5.89999 5.84998 5.32 6.16998 5.03H6.31998L6.78 6.34999L7.13998 5.06999H7.42999C7.42999 5.11999 7.47998 5.15 7.47998 5.17C7.41599 5.95271 7.13938 6.70305 6.67999 7.34L6.22998 6.03C5.94998 6.43 6.03999 7.02999 5.64999 7.31999L5.5 7.27Z" fill="#2F3A46"/>
<path d="M3.29999 7.31L2.84 5.97L2.39999 7.28999C2.08999 7.16999 1.66999 5.99 1.57999 5.09L1.89999 5.03L2.28 6.34L2.73999 5.02H2.92999L3.41 6.34999L3.78 5.05H4.13998C3.98373 5.81073 3.76293 6.55676 3.47998 7.28L3.29999 7.31Z" fill="#2F3A46"/>
</svg>
