<svg width="24" height="24" viewBox="0 0 24 24" fill="none" xmlns="http://www.w3.org/2000/svg">
<path d="M12.33 23.72C10.0544 23.7022 7.83484 23.0114 5.95105 21.7346C4.06726 20.4578 2.60344 18.6521 1.74396 16.545C0.884472 14.4378 0.667772 12.1234 1.12115 9.89328C1.57453 7.66318 2.67772 5.61712 4.29175 4.01282C5.90578 2.40851 7.95845 1.3177 10.1913 0.877806C12.424 0.437908 14.7371 0.668585 16.839 1.54078C18.941 2.41298 20.7378 3.8877 22.0032 5.77917C23.2686 7.67064 23.946 9.89428 23.95 12.17C23.9594 13.6953 23.6648 15.2072 23.0833 16.6173C22.5017 18.0275 21.6451 19.3076 20.5632 20.3829C19.4814 21.4582 18.1961 22.3072 16.7825 22.8802C15.3688 23.4531 13.8552 23.7386 12.33 23.72ZM12.53 6.86999C10.83 6.86999 9.12999 6.78999 7.42999 6.86999C5.72999 6.94999 4.93 7.57 4.81 9.38C4.69 11.19 4.81 13.31 4.81 15.28C4.79014 15.5602 4.82952 15.8414 4.92557 16.1053C5.02162 16.3693 5.17218 16.61 5.36746 16.8119C5.56274 17.0138 5.79835 17.1723 6.05896 17.2771C6.31956 17.3818 6.59932 17.4305 6.88 17.42C10.55 17.5 14.23 17.49 17.88 17.42C18.1567 17.4209 18.4305 17.3644 18.6842 17.254C18.9379 17.1436 19.166 16.9818 19.3539 16.7788C19.5419 16.5758 19.6857 16.336 19.7762 16.0746C19.8668 15.8132 19.9021 15.5358 19.88 15.26C19.88 13.26 20.01 11.32 19.88 9.36C19.76 7.64 19.09 7.00999 17.38 6.89999C15.67 6.78999 14.17 6.86999 12.53 6.86999Z" fill="#0E4E8C"/>
<path d="M11.09 10.11L14.71 12.19L11.09 14.32V10.11Z" fill="#0E4E8C"/>
</svg>
